<?xml version="1.0" encoding="utf-8"?>
<!-- Generator: Adobe Illustrator 26.3.1, SVG Export Plug-In . SVG Version: 6.00 Build 0)  -->
<svg version="1.1" id="Layer_1" xmlns:serif="http://www.serif.com/"
	 xmlns="http://www.w3.org/2000/svg" xmlns:xlink="http://www.w3.org/1999/xlink" x="0px" y="0px" viewBox="0 0 1920 1080"
	 style="enable-background:new 0 0 1920 1080;" xml:space="preserve">
<style type="text/css">
	.st0{fill:none;}
	
		.st1{fill-rule:evenodd;clip-rule:evenodd;fill:#D6C295;stroke:#000000;stroke-width:12.6;stroke-linecap:round;stroke-linejoin:round;stroke-miterlimit:11.25;}
	.st2{fill:none;stroke:#61E0EE;stroke-width:12.6;stroke-linecap:round;stroke-linejoin:round;stroke-miterlimit:11.25;}
	.st3{fill-rule:evenodd;clip-rule:evenodd;fill:#61E0EE;}
	.st4{fill-rule:evenodd;clip-rule:evenodd;}
	.st5{clip-path:url(#SVGID_00000033327434098221048310000001113904995735429531_);}
	.st6{fill-rule:evenodd;clip-rule:evenodd;fill:#4FCBE0;}
	.st7{fill-rule:evenodd;clip-rule:evenodd;fill:#B7F8FF;}
	.st8{fill-rule:evenodd;clip-rule:evenodd;fill:#EDEDED;}
	
		.st9{fill-rule:evenodd;clip-rule:evenodd;fill:#FFFFFF;stroke:#000000;stroke-width:12.6;stroke-linecap:round;stroke-linejoin:round;stroke-miterlimit:11.25;}
	.st10{fill-rule:evenodd;clip-rule:evenodd;fill:#FFFFFF;}
	.st11{fill:#CC3333;stroke:#FF0000;stroke-width:0.975;stroke-linejoin:round;stroke-miterlimit:10.6066;}
</style>
<rect id="_5" x="420" serif:id="5" class="st0" width="1080" height="1080">
</rect>
<g>
	<path class="st1" d="M759.9,441.6c0,0,54.7-17.9,81.6,4.1c26.9,22,13.7,49-11.6,41.2s-49.8-13-68-2
		C743.7,495.9,725.3,452.5,759.9,441.6L759.9,441.6z"/>
	<path class="st2" d="M946.3,51.9c0,0,27-28.1,37.1,40.4"/>
	<path class="st2" d="M1039.5,45.2c0,0-25.8-26.9-34.8,43.8"/>
	<path class="st2" d="M1013.3,20.6c0,0-33.2-17.1-18.8,52.7"/>
	<path class="st1" d="M849.2,710.4c0,0,3.1-57.5,33.4-74.6c30.2-17.1,50.6,4.9,34.2,25.7c-16.5,20.8-30.1,41.7-26.4,62.7
		C894,745.2,846.9,746.6,849.2,710.4L849.2,710.4z"/>
	<path class="st1" d="M1136.1,733.7c0,0,30.4-48.9,15.5-80.2c-14.9-31.3-44.3-25-42.7,1.4c1.5,26.5,0.7,51.5-14.3,66.5
		C1079.4,736.5,1117.2,764.8,1136.1,733.7z"/>
	<path class="st3" d="M1182,224.9c1.1-6.3,14.1-16.1,19.5-18.3c65.7-26.8,42.7,48.6,4.4,45.6"/>
	<path class="st4" d="M1225.6,193.2l0.3,0h0.3l0.3,0l0.3,0l0.3,0l0.3,0l0.3,0l0.3,0l0.3,0l0.3,0l0.3,0l0.3,0l0.3,0l0.3,0l0.3,0
		l0.3,0l0.3,0l0.3,0l0.3,0l0.3,0l0.3,0l0.3,0l0.3,0l0.3,0.1l0.3,0.1l0.3,0.1l0.3,0.1l0.3,0.1l0.3,0.1l0.3,0.1l0.3,0.1l0.3,0.1
		l0.2,0.1l0.3,0.1l0.2,0.1l0.2,0.1l0.2,0.1l0.2,0.1l0.2,0.1l0.2,0.1l0.2,0.1l0.2,0.1l0.2,0.1l0.2,0.1l0.2,0.1l0.2,0.1l0.2,0.1
		l0.2,0.1l0.2,0.1l0.2,0.1l0.2,0.1l0.2,0.1l0.2,0.1l0.2,0.1l0.2,0.1l0.2,0.1l0.2,0.1l0.2,0.1l0.2,0.1l0.2,0.1l0.2,0.1l0.2,0.1
		l0.2,0.1l0.2,0.1l0.2,0.1l0.2,0.2l0.2,0.2l0.2,0.2l0.2,0.2l0.2,0.2l0.2,0.2l0.2,0.2l0.2,0.2l0.2,0.2l0.2,0.2l0.2,0.2l0.2,0.2
		l0.2,0.2l0.2,0.2l0.2,0.2l0.2,0.2l0.2,0.2l0.2,0.2l0.2,0.2l0.2,0.2l0.2,0.2l0.2,0.2l0.2,0.2l0.1,0.2l0.1,0.2l0.1,0.2l0.1,0.2
		l0.1,0.2l0.1,0.2l0.1,0.2l0.1,0.2l0.1,0.2l0.1,0.2l0.1,0.2l0.1,0.2l0.1,0.2l0.1,0.2l0.1,0.2l0.1,0.2l0.1,0.2l0.1,0.2l0.1,0.2
		l0.1,0.2l0.1,0.2l0.1,0.2l0.1,0.2l0.1,0.2l0.1,0.2l0.1,0.2l0.1,0.2l0.1,0.2l0.1,0.2l0.1,0.2l0.1,0.2l0.1,0.2l0.1,0.2l0.1,0.2
		l0.1,0.2l0.1,0.2l0.1,0.2l0.1,0.2l0.1,0.2l0.1,0.2l0.1,0.2l0,0.2l0,0.2l0,0.2l0,0.2l0,0.2l0,0.2l0,0.2l0,0.2l0,0.2l0,0.2l0,0.2
		l0,0.2l0,0.2l0,0.2l0,0.2l0,0.2l0,0.2l0,0.2l0,0.2l0,0.2l0,0.2l0,0.2l0,0.2v0.2l0,0.2v0.2v0.2v0.2v0.2l0,0.4l0,0.5l0,0.4l0,0.5
		l0,0.4l0,0.4l0,0.5l-0.1,0.4l-0.1,0.5l-0.1,0.4l-0.1,0.4l-0.1,0.4l-0.1,0.4l-0.1,0.4l-0.1,0.4l-0.1,0.4l-0.1,0.4l-0.1,0.4l-0.1,0.4
		l-0.1,0.4l-0.1,0.4l-0.1,0.4l-0.1,0.4l-0.1,0.4l-0.1,0.4l-0.2,0.4l-0.2,0.4l-0.2,0.4l-0.2,0.4l-0.2,0.4l-0.2,0.4l-0.2,0.4l-0.2,0.4
		l-0.2,0.4l-0.2,0.4l-0.2,0.4l-0.2,0.4l-0.2,0.4l-0.2,0.4l-0.2,0.4l-0.2,0.4l-0.2,0.4l-0.2,0.4l-0.2,0.4l-0.2,0.4l-0.2,0.4l-0.2,0.4
		l-0.2,0.4l-0.3,0.4l-0.3,0.4l-0.3,0.4l-0.3,0.4l-0.3,0.4l-0.3,0.4l-0.3,0.4l-0.3,0.4l-0.3,0.4l-0.3,0.4l-0.3,0.4l-0.3,0.4l-0.3,0.4
		l-0.3,0.4l-0.3,0.4l-0.3,0.4l-0.3,0.4l-0.3,0.4l-0.3,0.4l-0.3,0.4l-0.3,0.4l-0.3,0.4l-0.3,0.4l-0.4,0.4l-0.4,0.4l-0.4,0.3l-0.4,0.3
		l-0.4,0.3l-0.4,0.3l-0.4,0.3l-0.4,0.3l-0.4,0.3l-0.4,0.3l-0.4,0.3l-0.4,0.3l-0.4,0.3l-0.4,0.3l-0.4,0.3l-0.4,0.3l-0.4,0.3l-0.4,0.3
		l-0.4,0.3l-0.4,0.3l-0.4,0.3l-0.4,0.3l-0.2,0.1l-0.2,0.1l-0.2,0.1l-0.2,0.1l-0.2,0.1l-0.2,0.1l-0.2,0.1l-0.2,0.1l-0.2,0.1l-0.2,0.1
		l-0.2,0.1l-0.2,0.1l-0.2,0.1l-0.2,0.1l-0.2,0.1l-0.2,0.1l-0.2,0.1l-0.2,0.1l-0.2,0.1l-0.2,0.1l-0.2,0.1l-0.2,0.1l-0.2,0.1l-0.2,0.1
		l-0.2,0.1l-0.2,0.1l-0.2,0.1l-0.2,0.1l-0.2,0.1l-0.2,0.1l-0.2,0.1l-0.2,0.1l-0.2,0.1l-0.2,0.1l-0.2,0.1l-0.2,0.1l-0.3,0.1l-0.2,0.1
		l-0.3,0.1l-0.2,0.1l-0.3,0.1l-0.3,0.1l-0.3,0.1l-0.3,0.1l-0.3,0.1l-0.3,0.1l-0.3,0.1l-0.3,0.1l-0.3,0.1l-0.3,0.1l-0.3,0.1l-0.3,0.1
		l-0.3,0.1l-0.3,0l-0.3,0.1l-0.3,0l-0.3,0l-0.3,0l-0.3,0l-0.3,0l-0.3,0l-0.3,0l-0.3,0l-0.3,0l-0.3,0l-0.3,0l-0.3,0l-0.3,0l-0.3,0
		l-0.3,0l-0.3,0l-0.3,0l-0.3,0l-0.3,0l-0.3,0l-0.3,0l-0.3,0l-0.3,0h-0.3l-0.3,0l-0.3,0h-0.3l-0.3,0l-0.3,0l-0.3,0l-0.3,0l-0.3,0
		l-0.3,0l-0.3,0l-0.3,0l-0.4,0l-0.4-0.1l-0.4-0.1l-0.4-0.1l-0.4-0.1l-0.4-0.2l-0.4-0.2l-0.4-0.2l-0.4-0.2l-0.4-0.2l-0.3-0.3
		l-0.3-0.3l-0.3-0.3l-0.3-0.3l-0.3-0.3l-0.3-0.4l-0.2-0.4l-0.2-0.4l-0.2-0.4l-0.2-0.4l-0.1-0.4l-0.1-0.4l-0.1-0.4l-0.1-0.4l0-0.4
		l0-0.4v-0.4l0-0.4l0-0.4l0.1-0.4l0.1-0.4l0.1-0.4l0.1-0.4l0.2-0.4l0.2-0.4l0.2-0.4l0.2-0.4l0.2-0.4l0.3-0.3l0.3-0.3l0.3-0.3
		l0.3-0.3l0.3-0.3l0.4-0.3l0.4-0.2l0.4-0.2l0.4-0.2l0.4-0.2l0.4-0.1l0.4-0.1l0.4-0.1l0.4-0.1l0.4-0.1l0.4,0l0.4,0l0.4,0l0.2,0l0.2,0
		l0.2,0l0.2,0l0.2,0h0.2l0.2,0h0.2l0.2,0h0.2h0.2l0.2,0h0.2l0.2,0h0.2l0.2,0l0.2,0l0.2,0l0.2,0l0.2,0l0.2,0l0.2,0l0.2,0l0.2,0l0.2,0
		l0.2,0l0.2,0l0.2,0l0.2,0l0.2,0l0.2,0l0.2,0l0.2,0l0.2,0l0.2,0l0.2,0l0.2,0l0.2,0l0.2,0l0.2,0l0.2,0l0.2,0l0.2,0l0.2,0l0.1,0l0.2,0
		l0.2,0l0.1,0l0.2,0l0.2,0l0.2,0l0.2,0l0.2,0l0.1,0l0.2,0l0.2-0.1l0.1-0.1l0.2-0.1l0.1-0.1l0.2-0.1l0.1-0.1l0.2-0.1l0.1-0.1l0.2-0.1
		l0.1-0.1l0.2-0.1l0.1-0.1l0.1-0.1l0.2-0.1l0.1-0.1l0.2-0.1l0.1-0.1l0.1-0.1l0.1-0.1l0.1-0.1l0.1-0.1l0.1-0.1l0.1-0.1l0.1-0.1
		l0.1-0.1l0.1-0.1l0.1-0.1l0.1-0.1l0.1-0.1l0.1-0.1l0.1-0.1l0.1-0.1l0.1-0.1l0.1-0.1l0.1-0.1l0.3-0.2l0.3-0.2l0.3-0.2l0.3-0.2
		l0.3-0.2l0.3-0.2l0.3-0.2l0.3-0.2l0.3-0.2l0.3-0.2l0.3-0.2l0.3-0.2l0.3-0.2l0.3-0.2l0.3-0.2l0.3-0.2l0.3-0.2l0.2-0.2l0.2-0.2
		l0.2-0.2l0.2-0.2l0.2-0.2l0.2-0.2l0.2-0.2l0.2-0.2l0.2-0.3l0.2-0.3l0.2-0.3l0.2-0.3l0.2-0.3l0.2-0.3l0.2-0.3l0.2-0.3l0.2-0.3
		l0.2-0.3l0.2-0.3l0.2-0.3l0.2-0.3l0.2-0.3l0.2-0.3l0.2-0.3l0.2-0.3l0.2-0.3l0.2-0.3l0.2-0.3l0.2-0.3l0.2-0.3l0.2-0.3l0.2-0.3
		l0.2-0.3l0.2-0.3l0.2-0.3l0.2-0.3l0.1-0.3l0.1-0.3l0.1-0.3l0.1-0.3l0.1-0.3l0.1-0.3l0.1-0.3l0.1-0.3l0.1-0.3l0.1-0.3l0.1-0.3
		l0.1-0.3l0.1-0.3l0.1-0.3l0.1-0.3l0.1-0.3l0.1-0.3l0.1-0.3l0.1-0.3l0.1-0.3l0.1-0.3l0.1-0.3l0.1-0.3l0.1-0.3l0.1-0.3l0.1-0.3
		l0.1-0.3l0-0.3l0-0.3l0-0.3l0-0.3l0-0.3l0-0.2l0-0.2l0-0.2l0-0.2l0-0.2l0-0.2l0-0.2l0-0.2v-0.1l0-0.1v-0.1l0-0.1v-0.1v-0.1l0-0.1
		v-0.1l0-0.1l0-0.1l0-0.1l0-0.1l0-0.1l0-0.1l0-0.1l0-0.1l0-0.1l0-0.1l0-0.1l0-0.1l0-0.1l0-0.1l0-0.1l0-0.1l0-0.1l0-0.1l0-0.1l0-0.1
		l0-0.1l0-0.1l0-0.1l0-0.1l0-0.1l0-0.1l0-0.1l0-0.1l0-0.1l0-0.1l0-0.1l0-0.1l0-0.1l0-0.1l0-0.1l0-0.1l0-0.1l0-0.1l0-0.1l0-0.1l0-0.1
		l0-0.1l0-0.1l0-0.1l0-0.1l0-0.1l0-0.1l0-0.1l0-0.1l0-0.1l0-0.1l0-0.1l0-0.1l0,0l0,0l0,0l0-0.1l0,0l0-0.1l0,0l0,0l0,0l0,0l0-0.1l0,0
		l0,0l0,0l0-0.1l0,0l0,0l0,0l0,0l0,0l0,0l0,0l0,0l0,0l0,0l0,0l-0.1,0l0,0l0,0l-0.1,0l-0.1,0l0,0l-0.1,0l-0.1,0l-0.1,0l-0.1,0l-0.1,0
		l-0.1,0l-0.1,0l-0.1,0l-0.1,0l-0.1,0l-0.1,0l-0.1,0l-0.1,0l-0.1,0l-0.1,0l-0.1,0l-0.1,0l-0.1,0l-0.1,0l-0.1,0l-0.1,0l-0.1,0l-0.1,0
		l-0.1,0l-0.1,0l-0.1,0l-0.1,0l-0.1,0l-0.1,0l-0.1,0l-0.1,0l-0.1,0l-0.1,0l-0.1,0l-0.1,0l-0.1,0l-0.1,0l-0.1,0l-0.1,0l-0.1,0l-0.1,0
		l-0.1,0l-0.1,0l-0.1,0l-0.1,0l-0.1,0l-0.1,0l-0.1,0l-0.1,0l-0.1,0l-0.1,0l-0.2,0l-0.2,0l-0.2,0l-0.2,0l-0.2,0l-0.2,0l-0.2,0l-0.2,0
		l-0.2,0l-0.2,0l-0.2,0h-0.2l-0.2,0h-0.2h-0.2h-0.2l-0.2,0h-0.2l-0.2,0l-0.2,0l-0.2,0l-0.2,0l-0.2,0l-0.2,0l-0.2,0l-0.2,0l-0.2,0
		l-0.2,0l-0.2,0l-0.2,0l-0.2,0l-0.2,0l-0.2,0l-0.2,0l-0.2,0l-0.2,0l-0.2,0l-0.2,0l-0.2,0l-0.2,0l-0.2,0l-0.2,0l-0.2,0l-0.2,0l-0.2,0
		l-0.3,0l-0.3,0l-0.3,0.1l-0.3,0.1l-0.3,0.1l-0.3,0.1l-0.3,0.1l-0.3,0.1l-0.3,0.1l-0.3,0.1l-0.3,0.1l-0.3,0.1l-0.3,0.1l-0.3,0.1
		l-0.3,0.1l-0.3,0.1l-0.3,0.1l-0.3,0.1l-0.3,0.1l-0.3,0.1l-0.3,0.1l-0.3,0.1l-0.3,0.1l-0.3,0.1l-0.3,0.1l-0.3,0.1l-0.3,0.1l-0.3,0.1
		l-0.3,0.1l-0.3,0.1l-0.3,0.1l-0.3,0.1l-0.3,0.1l-0.3,0.1l-0.3,0.1l-0.3,0.1l-0.3,0.1l-0.3,0.1l-0.3,0.1l-0.3,0.1l-0.3,0.1l-0.3,0.1
		l-0.4,0.1l-0.4,0.1l-0.4,0.1l-0.4,0.1l-0.3,0.1l-0.1,0l-0.1,0l-0.1,0l-0.1,0l-0.1,0l-0.1,0l-0.2,0.1l-0.2,0.1l-0.2,0.1l-0.2,0.1
		l-0.2,0.1l-0.3,0.1l-0.3,0.2l-0.3,0.2l-0.3,0.2l-0.3,0.2l-0.3,0.2l-0.3,0.2l-0.3,0.2l-0.3,0.2l-0.3,0.2l-0.3,0.2l-0.3,0.2l-0.3,0.2
		l-0.3,0.2l-0.3,0.2l-0.3,0.3l-0.3,0.3l-0.3,0.3l-0.3,0.3l-0.3,0.3l-0.3,0.3l-0.3,0.3l-0.3,0.3l-0.3,0.3l-0.3,0.3l-0.3,0.3l-0.3,0.3
		l-0.3,0.3l-0.3,0.3l-0.1,0.1l-0.2,0.1l-0.1,0.1l-0.1,0.1l-0.1,0.1l-0.1,0.1l-0.1,0.1l-0.1,0.1l-0.1,0.1l-0.1,0.1l-0.1,0.1l-0.1,0.1
		l-0.1,0.1l-0.1,0.1l-0.1,0.1l-0.1,0.1l-0.1,0.1l-0.1,0.1l-0.1,0.1l-0.1,0.1l-0.1,0.1l-0.1,0.1l-0.1,0.1l-0.1,0.1l-0.1,0.1l-0.1,0.1
		l-0.1,0.1l-0.1,0.1l-0.1,0.1l-0.1,0.1l-0.1,0.1l-0.1,0.1l-0.1,0.1l-0.1,0.1l0,0.1l0,0.1l0,0.1l0,0.1l0,0.1l0,0.1l0,0l0,0l0,0l0,0
		l0,0l-0.1,0.4l-0.1,0.4l-0.1,0.4l-0.2,0.4l-0.2,0.4l-0.2,0.4l-0.2,0.4l-0.2,0.4l-0.3,0.3l-0.3,0.3l-0.3,0.3l-0.3,0.3l-0.3,0.3
		l-0.3,0.3l-0.4,0.2l-0.4,0.2l-0.4,0.2l-0.4,0.2l-0.4,0.2l-0.4,0.1l-0.4,0.1l-0.4,0.1l-0.4,0.1l-0.4,0l-0.4,0l-0.4,0l-0.4,0
		l-0.4-0.1l-0.4-0.1l-0.4-0.1l-0.4-0.1l-0.4-0.2l-0.4-0.2l-0.4-0.2l-0.4-0.2l-0.4-0.2l-0.3-0.3l-0.3-0.3l-0.3-0.3l-0.3-0.3l-0.3-0.3
		l-0.3-0.3l-0.2-0.4l-0.2-0.4l-0.2-0.4l-0.2-0.4l-0.2-0.4l-0.1-0.4l-0.1-0.4l-0.1-0.4l-0.1-0.4l0-0.4l0-0.4l0-0.4l0-0.4l0.1-0.4
		l0-0.2l0.1-0.3l0.1-0.3l0.1-0.3l0.1-0.3l0.1-0.3l0.1-0.3l0.1-0.3l0.1-0.3l0.1-0.3l0.1-0.3l0.1-0.3l0.1-0.3l0.1-0.3l0.1-0.3l0.1-0.3
		l0.1-0.3l0.1-0.3l0.1-0.2l0.2-0.3l0.2-0.2l0.2-0.2l0.2-0.2l0.2-0.2l0.2-0.2l0.2-0.2l0.2-0.2l0.2-0.2l0.2-0.2l0.2-0.2l0.2-0.2
		l0.2-0.2l0.2-0.2l0.2-0.2l0.2-0.2l0.2-0.2l0.2-0.2l0.2-0.2l0.2-0.2l0.2-0.2l0.2-0.2l0.2-0.2l0.2-0.2l0.2-0.2l0.2-0.2l0.2-0.2
		l0.2-0.2l0.2-0.2l0.2-0.2l0.2-0.2l0.2-0.2l0.2-0.2l0.2-0.2l0.2-0.2l0.4-0.4l0.4-0.4l0.4-0.4l0.4-0.4l0.4-0.4l0.4-0.4l0.4-0.4
		l0.4-0.4l0.4-0.4l0.4-0.4l0.4-0.3l0.4-0.3l0.4-0.3l0.4-0.3l0.4-0.3l0.4-0.3l0.4-0.3l0.4-0.3l0.4-0.3l0.4-0.3l0.4-0.3l0.4-0.3
		l0.4-0.3l0.4-0.3l0.4-0.3l0.4-0.2l0.4-0.2l0.4-0.2l0.4-0.2l0.4-0.2l0.4-0.2l0.4-0.2l0.4-0.2l0.4-0.2l0.2-0.1l0.2-0.1l0.2-0.1
		l0.2-0.1l0.2-0.1l0.2-0.1l0.4-0.2l0.4-0.2l0.4-0.2l0.4-0.2l0.4-0.2l0.4-0.2l0.4-0.2l0.4-0.1l0.4-0.2l0.4-0.1l0.4-0.1l0.4-0.1
		l0.4-0.1l0.4-0.1l0.4-0.1l0.4-0.1l0.4-0.1l0.4-0.1l0.4-0.1l0.4-0.1l0.4-0.1l0.4-0.1l0.4-0.1l0.4-0.1l0.4-0.1l0.4-0.1l0.4-0.1
		l0.4-0.1l0.4-0.1l0.4-0.1l0.4-0.1l0.4-0.1l0.4-0.1l0.4-0.1l0.4-0.1l0.4-0.1l0.3-0.1l0.3-0.1l0.4-0.1l0.3-0.1l0.3-0.1l0.3-0.1
		l0.3-0.1l0.3-0.1l0.3-0.1l0.3-0.1l0.3-0.1l0.3-0.1l0.3-0.1l0.3-0.1l0.3-0.1l0.3-0.1l0.3,0l0.3-0.1l0.3,0l0.3,0l0.3,0l0.3,0l0.3,0
		l0.3,0l0.3,0l0.3,0l0.3,0l0.3,0l0.3,0l0.3,0l0.3,0l0.3,0l0.3,0l0.3,0l0.3,0l0.3,0l0.3,0l0.3,0l0.3,0h0.3l0.3,0L1225.6,193.2
		L1225.6,193.2z"/>
	<path class="st3" d="M826,175.4c-6,2.3-12.5-1.5-17.1-5.1c-56-43.5,20.5-61,37.1-26.3"/>
	<path class="st4" d="M813.4,117.9h0.5l0.5,0l0.5,0l0.5,0l0.5,0l0.5,0l0.5,0l0.5,0l0.5,0l0.5,0l0.5,0l0.5,0.1l0.5,0.1l0.5,0.1
		l0.5,0.1l0.5,0.1l0.5,0.1l0.5,0.1l0.5,0.1l0.5,0.1l0.5,0.1l0.5,0.1l0.5,0.1l0.5,0.1l0.5,0.1l0.5,0.1l0.5,0.1l0.5,0.1l0.5,0.1
		l0.5,0.1l0.5,0.2l0.5,0.2l0.5,0.2l0.5,0.2l0.5,0.2l0.5,0.2l0.5,0.2l0.5,0.2l0.5,0.2l0.5,0.2l0.5,0.2l0.5,0.2l0.5,0.2l0.5,0.2
		l0.5,0.2l0.5,0.2l0.4,0.2l0.4,0.2l0.2,0.1l0.2,0.1l0.2,0.1l0.2,0.1l0.2,0.1l0.2,0.1l0.2,0.1l0.2,0.1l0.2,0.1l0.2,0.1l0.2,0.1
		l0.2,0.1l0.2,0.1l0.2,0.1l0.2,0.1l0.2,0.1l0.2,0.1l0.2,0.2l0.2,0.1l0.2,0.2l0.2,0.2l0.2,0.2l0.2,0.2l0.2,0.2l0.2,0.2l0.2,0.2
		l0.2,0.2l0.2,0.2l0.2,0.2l0.2,0.2l0.2,0.2l0.2,0.2l0.2,0.2l0.2,0.2l0.2,0.2l0.2,0.2l0.2,0.2l0.2,0.2l0.2,0.2l0.2,0.2l0.2,0.2
		l0.2,0.2l0.2,0.2l0.2,0.2l0.2,0.2l0.2,0.2l0.2,0.2l0.2,0.2l0.2,0.2l0.2,0.2l0.2,0.2l0.2,0.2l0.2,0.2l0.2,0.2l0.2,0.2l0.2,0.2
		l0.2,0.2l0.2,0.2l0.2,0.2l0.2,0.2l0.2,0.2l0.2,0.2l0.2,0.2l0.2,0.2l0.2,0.2l0.2,0.2l0.2,0.2l0.2,0.2l0.2,0.2l0.2,0.2l0.2,0.2
		l0.2,0.2l0.2,0.2l0.2,0.2l0.1,0.2l0.2,0.2l0.1,0.2l0.1,0.2l0.1,0.2l0.1,0.2l0.1,0.2l0.1,0.2l0.1,0.2l0.1,0.2l0.1,0.2l0.1,0.3
		l0.1,0.3l0.1,0.3l0.1,0.2l0.1,0.2l0.2,0.4l0.2,0.4l0.1,0.4l0.1,0.4l0.1,0.4l0.1,0.4l0,0.4l0,0.4v0.4l0,0.4l0,0.4l-0.1,0.4l-0.1,0.4
		l-0.1,0.4l-0.1,0.4l-0.2,0.4l-0.2,0.4l-0.2,0.4l-0.2,0.4l-0.2,0.3l-0.3,0.3l-0.3,0.3l-0.3,0.3l-0.3,0.3l-0.3,0.3l-0.3,0.2l-0.4,0.2
		l-0.4,0.2l-0.4,0.2l-0.4,0.2l-0.4,0.2l-0.4,0.1l-0.4,0.1l-0.4,0.1l-0.4,0.1l-0.4,0l-0.4,0h-0.4l-0.4,0l-0.4,0l-0.4-0.1l-0.4-0.1
		l-0.4-0.1l-0.4-0.1l-0.4-0.2l-0.4-0.2l-0.4-0.2l-0.4-0.2l-0.3-0.2L841,150l-0.3-0.3l-0.3-0.3l-0.3-0.3l-0.3-0.3l-0.2-0.3l-0.2-0.4
		l-0.2-0.4l-0.2-0.4l-0.1-0.2l-0.1-0.1l-0.1-0.1l-0.1-0.1l-0.1-0.1l-0.1-0.1l-0.1-0.1l-0.1-0.1l-0.1-0.1l-0.1-0.1l-0.1-0.1l-0.1-0.1
		l-0.1-0.1l-0.1-0.1l-0.1-0.1l-0.1-0.1l-0.1-0.1l-0.1-0.1l-0.1-0.1l-0.1-0.1l-0.1-0.1l-0.1-0.1l-0.1-0.1L837,144l-0.1-0.1l-0.1-0.1
		l-0.1-0.1l-0.1-0.1l-0.1-0.1l-0.1-0.1l-0.1-0.1l-0.1-0.1l-0.1-0.1l-0.1-0.1l-0.1-0.1l-0.1-0.1l-0.1-0.1l-0.1-0.1l-0.1-0.1l-0.1-0.1
		l-0.1-0.1l-0.1-0.1l-0.1-0.1l-0.1-0.1l-0.1-0.1l-0.1-0.1l-0.1-0.1l-0.1-0.1l-0.1-0.1l-0.1-0.1l-0.1-0.1l-0.1-0.1l-0.1-0.1l-0.1-0.1
		l-0.1-0.1l-0.1-0.1l-0.1-0.1l-0.1-0.1l-0.1-0.1l-0.1-0.1l-0.1-0.1l-0.1-0.1l-0.1-0.1l-0.1-0.1l-0.1-0.1l-0.1-0.1l-0.1-0.1l-0.1-0.1
		l-0.1-0.1l-0.1-0.1l-0.1-0.1l-0.1-0.1l-0.1-0.1l-0.1-0.1l-0.1-0.1l-0.1-0.1l-0.1-0.1l-0.1-0.1l-0.1-0.1l-0.1-0.1l-0.1-0.1l-0.1-0.1
		l-0.1-0.1l-0.1-0.1l-0.1-0.1l-0.1-0.1l-0.1-0.1l-0.1-0.1l-0.2-0.1l-0.1-0.1l-0.3-0.2l-0.3-0.2l-0.3-0.1l-0.3-0.1l-0.3-0.1l-0.3-0.1
		l-0.3-0.1l-0.3-0.1l-0.3-0.1l-0.3-0.1l-0.3-0.1l-0.3-0.1l-0.3-0.1l-0.3-0.1l-0.3-0.1l-0.3-0.1l-0.3-0.1l-0.3-0.1l-0.3-0.1l-0.3-0.1
		l-0.3-0.1l-0.3-0.1l-0.3-0.1l-0.3-0.1l-0.3-0.1l-0.3-0.1l-0.3-0.1l-0.3-0.1l-0.3-0.1l-0.3-0.1l-0.3-0.1l-0.3-0.1l-0.3,0l-0.3,0
		l-0.3,0l-0.3,0l-0.3,0l-0.3,0l-0.3,0l-0.3,0l-0.3,0l-0.3,0l-0.3,0l-0.3,0l-0.3,0l-0.3,0l-0.3,0l-0.3,0H813l-0.3,0h-0.3l-0.3,0
		l-0.3,0l-0.3,0l-0.3,0l-0.3,0l-0.3,0l-0.3,0l-0.3,0l-0.3,0l-0.3,0l-0.3,0l-0.3,0l-0.3,0l-0.3,0l-0.3,0l-0.3,0.1l-0.3,0.1l-0.3,0.1
		l-0.3,0.1l-0.3,0.1l-0.3,0.1l-0.3,0.1l-0.3,0.1l-0.3,0.1l-0.3,0.1l-0.3,0.1l-0.3,0.1l-0.3,0.1l-0.3,0.1l-0.3,0.1l-0.2,0.1l-0.2,0.1
		l-0.2,0.1l-0.2,0.1l-0.2,0.1l-0.2,0.1l-0.2,0.1l-0.2,0.1l-0.2,0.1l-0.2,0.1L801,136l-0.2,0.1l-0.1,0l-0.1,0l-0.1,0.1l-0.1,0.1
		l-0.1,0.1l-0.1,0.1l-0.1,0.1l-0.1,0.1l-0.1,0.1l-0.1,0.1l-0.1,0.1l-0.1,0.1l-0.1,0.1l-0.1,0.1l-0.1,0.1l-0.1,0.1l-0.1,0.1l-0.1,0.1
		l-0.1,0.1l-0.1,0.1l-0.1,0.1l-0.1,0.1l-0.1,0.1l-0.1,0.1l-0.1,0.1l-0.1,0.1l-0.1,0.1l-0.1,0.1l-0.1,0.1l-0.1,0.1l-0.1,0.1l-0.1,0.1
		l-0.1,0.1l-0.1,0.1l-0.1,0.1l-0.1,0.1l0,0.1l-0.1,0.1l0,0.1l0,0.1l0,0.1l0,0.1l0,0.1l0,0.1l0,0.1l0,0.1l0,0.1l0,0l0,0.1l0,0.1l0,0
		l0,0.1l0,0.1l0,0l0,0l0,0.1l0,0.1l0,0l0,0.1l0,0.1l0,0l0,0.1l0,0.1l0,0.1l0,0l0,0.1l0,0.1l0,0.1l0,0.1l0,0l0,0.1l0,0.1l0,0.1l0,0
		l0,0.1l0,0.1l0,0.1l0,0.1l0,0l0,0.1l0,0.1l0,0.1l0,0.1l0,0.1l0,0.1l0,0.1l0,0.1l0,0.1l0,0.1l0,0.1l0,0.1l0,0.1l0,0.1l0,0.1l0,0.1
		l0,0.1v0.1l0,0.1v0.1l0,0.1v0.1v0.1v0.1v0.1v0.1l0,0.1v0.1l0,0.1l0,0.1v0.1l0,0.1l0,0.1l0,0.1l0,0.1l0,0.1l0,0.1l0,0.1l0,0.1l0,0.1
		l0,0.1l0,0.1l0,0.1l0,0.1l0,0.1l0,0.1l0,0.1l0,0.1l0,0.1l0,0.1l0,0.1l0,0.1l0,0.1l0,0.1l0,0.1l0,0.1l0,0.1l0,0.1l0,0.1l0,0.1l0,0.1
		l0.1,0.1l0.1,0.1l0.1,0.1l0.1,0.1l0.1,0.1l0.1,0.1l0.1,0.1l0.1,0.1l0.1,0.1l0.1,0.1l0.1,0.1l0.1,0.2l0.1,0.1l0.1,0.1l0.1,0.2
		l0.1,0.2l0.1,0.2l0.1,0.2l0.1,0.2l0.1,0.2l0.1,0.2l0.1,0.2l0.1,0.2l0.1,0.2l0.1,0.2l0.1,0.2l0.1,0.2l0.1,0.2l0.1,0.2l0.1,0.2
		l0.1,0.2l0.1,0.2l0.1,0.2l0.1,0.2l0.1,0.2l0.1,0.2l0.1,0.2l0.1,0.2l0.1,0.2l0.1,0.2l0.1,0.2l0.2,0.2l0.2,0.2l0.2,0.2l0.2,0.2
		l0.2,0.2l0.2,0.2l0.2,0.2l0.2,0.2l0.2,0.2l0.2,0.2l0.2,0.2l0.2,0.2l0.2,0.2l0.2,0.2l0.2,0.2l0.2,0.2l0.2,0.2l0.2,0.2l0.2,0.2
		l0.2,0.2l0.2,0.2l0.2,0.2l0.2,0.2l0.2,0.2l0.2,0.2l0.2,0.2l0.2,0.2l0.2,0.2l0.2,0.2l0.2,0.2l0.2,0.2l0.2,0.2l0.2,0.2l0.2,0.2
		l0.2,0.2l0.3,0.2l0.2,0.2l0.3,0.2l0.3,0.2l0.3,0.2l0.3,0.2l0.3,0.2l0.3,0.2l0.3,0.2l0.3,0.2l0.3,0.2l0.3,0.2l0.3,0.2l0.3,0.2
		l0.3,0.2l0.3,0.2l0.3,0.2l0.3,0.2l0.3,0.2l0.3,0.2l0.2,0.1l0.2,0.1l0.2,0.1l0.2,0.1l0.2,0.1l0.2,0.1l0.2,0.1l0.2,0.1l0.2,0.1
		l0.2,0.1l0.2,0.1l0.2,0.1l0.2,0.1l0.2,0.1l0.2,0.1l0.2,0.1l0.2,0.1l0.2,0.1l0.2,0.1l0.2,0.1l0.2,0.1l0.2,0.1l0.2,0.1l0.2,0.1
		l0.2,0.1l0.2,0.1l0.2,0.1l0.2,0.1l0.2,0.1l0.2,0.1l0.2,0.1l0.2,0.1l0.2,0.1l0.2,0.1l0.2,0.1l0.2,0.1l0.2,0l0.1,0l0.1,0l0.1,0l0.1,0
		l0.1,0l0.1,0l0.1,0l0.1,0l0.1,0l0.1,0l0.1,0l0.1,0l0.1,0l0.1,0l0.1,0l0.1,0l0.1,0l0.1,0l0.1,0h0.1l0.1,0l0.1,0h0.1h0.1l0,0h0.1h0h0
		h0h0l0,0h0h0l0,0l0,0h0l0,0l0,0l0,0l0,0l0,0l0,0l0,0l0,0l0,0l0,0l0,0l0,0l0,0l0,0l0,0l0,0l0,0l0.1,0l0.4-0.1l0.4-0.1l0.4-0.1
		l0.4-0.1l0.4,0l0.4,0h0.4l0.4,0l0.4,0l0.4,0.1l0.4,0.1l0.4,0.1l0.4,0.1l0.4,0.2l0.4,0.2l0.4,0.2l0.4,0.2l0.3,0.2l0.3,0.3l0.3,0.3
		l0.3,0.3l0.3,0.3l0.3,0.3l0.3,0.3l0.2,0.3l0.2,0.4l0.2,0.4l0.2,0.4l0.2,0.4l0.1,0.4l0.1,0.4l0.1,0.4l0.1,0.4l0,0.4l0,0.4v0.4l0,0.4
		l0,0.4l-0.1,0.4l-0.1,0.4l-0.1,0.4l-0.1,0.4l-0.2,0.4l-0.2,0.4l-0.2,0.4l-0.2,0.4l-0.2,0.4l-0.3,0.3l-0.3,0.3l-0.3,0.3l-0.3,0.3
		l-0.3,0.3l-0.3,0.3l-0.3,0.2l-0.4,0.2l-0.4,0.2l-0.4,0.2l-0.4,0.2l-0.2,0.1l-0.2,0.1l-0.2,0.1l-0.2,0.1l-0.2,0.1l-0.2,0.1l-0.2,0.1
		l-0.2,0.1l-0.2,0.1l-0.2,0.1l-0.2,0l-0.2,0.1l-0.2,0l-0.2,0l-0.2,0l-0.2,0l-0.2,0l-0.2,0l-0.2,0l-0.2,0l-0.2,0l-0.2,0l-0.2,0
		l-0.2,0l-0.2,0l-0.2,0h-0.2l-0.2,0h-0.2l-0.2,0l-0.2,0l-0.2,0l-0.2,0l-0.2,0l-0.2,0l-0.2,0l-0.2,0l-0.2,0l-0.2,0l-0.2,0l-0.2,0
		l-0.2,0l-0.2,0l-0.2,0l-0.2,0l-0.2,0l-0.2,0l-0.2,0l-0.2,0l-0.2,0l-0.2-0.1l-0.2-0.1l-0.2-0.1l-0.2-0.1l-0.4-0.1l-0.4-0.1l-0.4-0.1
		l-0.4-0.1l-0.4-0.1l-0.4-0.1l-0.4-0.2l-0.4-0.2l-0.4-0.2l-0.4-0.2l-0.4-0.2l-0.4-0.2l-0.4-0.2l-0.3-0.2l-0.3-0.2l-0.3-0.2l-0.3-0.2
		l-0.3-0.2l-0.3-0.2l-0.3-0.2l-0.3-0.2l-0.3-0.2l-0.3-0.2l-0.3-0.2l-0.3-0.2l-0.3-0.2l-0.3-0.2l-0.3-0.2l-0.3-0.2l-0.3-0.2l-0.3-0.2
		l-0.3-0.2l-0.3-0.2l-0.3-0.2l-0.3-0.2l-0.3-0.2l-0.2-0.2l-0.3-0.3l-0.3-0.3l-0.3-0.3l-0.3-0.3l-0.3-0.3l-0.3-0.3l-0.3-0.3l-0.3-0.3
		l-0.3-0.3l-0.3-0.3l-0.3-0.3l-0.3-0.3l-0.3-0.3l-0.3-0.3l-0.3-0.3l-0.3-0.3l-0.3-0.3l-0.3-0.3l-0.3-0.3l-0.3-0.3l-0.3-0.3l-0.3-0.3
		l-0.3-0.3l-0.3-0.3l-0.3-0.3l-0.3-0.3l-0.3-0.3l-0.3-0.3l-0.3-0.3l-0.3-0.3l-0.3-0.3l-0.3-0.3l-0.3-0.3l-0.3-0.3l-0.2-0.3l-0.3-0.3
		l-0.2-0.3l-0.2-0.3l-0.2-0.3l-0.2-0.3l-0.2-0.3l-0.2-0.3l-0.2-0.3l-0.2-0.3l-0.2-0.3l-0.2-0.3l-0.2-0.3l-0.2-0.3l-0.2-0.3l-0.2-0.2
		l-0.2-0.3l-0.2-0.3l-0.2-0.2l-0.2-0.3l-0.2-0.3l-0.2-0.3l-0.2-0.3l-0.2-0.3l-0.2-0.2l-0.2-0.3l-0.2-0.3l-0.2-0.3l-0.2-0.2l-0.2-0.3
		l-0.2-0.2l-0.2-0.3l-0.2-0.3l-0.2-0.2l-0.2-0.3l-0.2-0.2l-0.2-0.2l-0.2-0.3l-0.2-0.3l-0.2-0.3l-0.2-0.2l-0.2-0.3l-0.1-0.2l-0.1-0.3
		l-0.1-0.2l-0.1-0.3l-0.1-0.2l-0.1-0.2l-0.1-0.3l-0.1-0.3l-0.1-0.2l-0.1-0.3l-0.1-0.3l-0.1-0.2l-0.1-0.3l-0.1-0.3l-0.1-0.2l-0.1-0.2
		l-0.1-0.2l-0.1-0.3l-0.1-0.3l-0.1-0.2l-0.1-0.3l-0.1-0.3l-0.1-0.3l-0.1-0.2l-0.1-0.3l-0.1-0.3l-0.1-0.2l-0.1-0.3l-0.1-0.3l-0.1-0.3
		l-0.1-0.3l-0.1-0.2l-0.1-0.3l-0.1-0.3l-0.1-0.3l-0.1-0.2l-0.1-0.3l-0.1-0.3l0-0.2l0-0.3l0-0.3l0-0.2l0-0.3l0-0.3l0-0.2l0-0.3l0-0.3
		l0-0.3l0-0.2l0-0.3l0-0.3l0-0.3l0-0.3l0-0.3l0-0.2l0-0.3v-0.3v-0.2l0-0.2v-0.3l0-0.3l0-0.2l0-0.3l0-0.2l0-0.2l0-0.3l0-0.2l0-0.2
		l0-0.2l0-0.2l0-0.2l0-0.3l0-0.2l0-0.2l0-0.2l0-0.2l0.1-0.2l0.1-0.2l0.1-0.2l0.1-0.2l0.1-0.2l0.1-0.2l0.1-0.2l0.1-0.2l0.1-0.2
		l0.1-0.2l0.1-0.2l0.1-0.2l0.1-0.2l0.1-0.2l0.1-0.2l0.1-0.2l0.1-0.2l0.1-0.2l0.1-0.2l0.1-0.2l0.1-0.2l0.1-0.2l0.1-0.2l0.1-0.2
		l0.1-0.2l0.1-0.2l0.1-0.2l0.1-0.2l0.1-0.2l0.1-0.2l0.1-0.2l0.1-0.2l0.1-0.2l0.1-0.2l0.1-0.2l0.1-0.2l0.1-0.2l0.1-0.2l0.1-0.2
		l0.1-0.2l0.1-0.2l0.2-0.2l0.1-0.2l0.2-0.2l0.2-0.2l0.2-0.2l0.2-0.2l0.2-0.2l0.2-0.2l0.2-0.2l0.2-0.2l0.2-0.2l0.2-0.2l0.2-0.2
		l0.2-0.2l0.2-0.2l0.2-0.2l0.2-0.1l0.2-0.2l0.2-0.2l0.2-0.1l0.2-0.1l0.2-0.1l0.2-0.1l0.2-0.1l0.2-0.1l0.2-0.1l0.2-0.1l0.2-0.1
		l0.2-0.1l0.2-0.1l0.2-0.1l0.2-0.1l0.2-0.1l0.2-0.1l0.2-0.1l0.2-0.1l0.2-0.1l0.2-0.1l0.2-0.1l0.2-0.1l0.2-0.1l0.2-0.1l0.2-0.1
		l0.4-0.2l0.4-0.2l0.4-0.2l0.4-0.2l0.4-0.2l0.4-0.2l0.4-0.2l0.4-0.2l0.4-0.2l0.4-0.2l0.4-0.2l0.4-0.2l0.4-0.2l0.4-0.1l0.4-0.1
		l0.4-0.1l0.4-0.1l0.4-0.1l0.4-0.1l0.4-0.1l0.4-0.1l0.4-0.1l0.5-0.1l0.4-0.1l0.5-0.1l0.5-0.1l0.5-0.1l0.5-0.1l0.5-0.1l0.5-0.1
		l0.5-0.1l0.5-0.1l0.5-0.1l0.5,0l0.5,0l0.5,0l0.5,0l0.5,0l0.5,0l0.5,0l0.5,0l0.5,0l0.5,0l0.5,0L813.4,117.9L813.4,117.9z"/>
	<path class="st3" d="M829.6,633.4c0,0-29.1-57.2-23.6-106.4c17.2-153.7-28-183.9-10.3-277.7c6.1-32.6,17.8-69.6,37.5-96.6
		c43.5-59.2,127-90,199.7-76.1c29.1,5.6,55.4,18.2,81.4,32c90.5,48,109.3,149.5,97.5,234.9c-5.2,37.8-37.7,96.8-33,134.8
		c9.9,79.1,7.2,121.9-17.5,172.9c-21,43.5-103,76.2-192.5,66.9C953.4,716.6,862.1,700.6,829.6,633.4L829.6,633.4z"/>
	<g>
		<defs>
			<path id="SVGID_1_" d="M829.6,633.4c0,0-29.1-57.2-23.6-106.4c17.2-153.7-28-183.9-10.3-277.7c6.1-32.6,17.8-69.6,37.5-96.6
				c43.5-59.2,127-90,199.7-76.1c29.1,5.6,55.4,18.2,81.4,32c90.5,48,109.3,149.5,97.5,234.9c-5.2,37.8-37.7,96.8-33,134.8
				c9.9,79.1,7.2,121.9-17.5,172.9c-21,43.5-103,76.2-192.5,66.9C953.4,716.6,862.1,700.6,829.6,633.4L829.6,633.4z"/>
		</defs>
		<clipPath id="SVGID_00000002383796287062947320000016230378104056567699_">
			<use xlink:href="#SVGID_1_"  style="overflow:visible;"/>
		</clipPath>
		<g style="clip-path:url(#SVGID_00000002383796287062947320000016230378104056567699_);">
			<path class="st6" d="M1152.9,145.8c0,0,30.8,39.6,22.5,101.1c-12.5,92.4-51.4,72.6-48.7,238.9c1.3,82.9,6.3,132.9-30.2,182.8
				c-35.5,48.5-136.9,48.4-162.5,41.1c-25.6-7.3,101.1,26.4,173.6-2.9c72.5-29.3,82.8-152.3,73.2-229.3
				c-9.5-76.9,52-98.9,31.5-231.5C1179.3,168.6,1178.6,173,1152.9,145.8L1152.9,145.8z"/>
			<path class="st6" d="M1032,259.5c0,0,9,45,62.6,42.4c53.6-2.6,57.4-57.4,57.4-57.4L1032,259.5z"/>
			<path class="st6" d="M802.6,236.7c0,0,9,45,62.6,42.4c53.6-2.6,57.4-57.4,57.4-57.4L802.6,236.7z"/>
		</g>
	</g>
	<path class="st4" d="M998.2,65.6l0.9,0l0.9,0l0.9,0l0.9,0l0.9,0l0.9,0l0.9,0l0.9,0l0.9,0l0.9,0l0.9,0l0.9,0l0.9,0.1l0.9,0.1
		l0.9,0.1l0.9,0.1l0.9,0.1l0.9,0.1l0.9,0.1l0.9,0.1l0.9,0.1l0.9,0.1l0.9,0.1l0.9,0.1l0.9,0.1l0.9,0.1l0.9,0.1l0.9,0.1l0.9,0.1
		l0.9,0.1l0.9,0.1l0.9,0.1l0.9,0.1l0.9,0.1l0.9,0.1l0.9,0.2l0.9,0.2l0.9,0.2l0.9,0.2l0.9,0.2l0.7,0.1l0.7,0.1l0.7,0.1l0.7,0.1
		l0.7,0.2l0.7,0.2l0.7,0.2l0.7,0.2l0.7,0.2l0.7,0.2l0.7,0.2l0.7,0.2l0.7,0.2l0.7,0.2l0.7,0.2l0.7,0.2l0.7,0.2l0.7,0.2l0.7,0.2
		l0.7,0.2l0.7,0.2l0.7,0.2l0.7,0.2l0.7,0.2l0.7,0.2l0.7,0.2l0.7,0.2l0.7,0.2l0.7,0.2l0.7,0.2l0.7,0.2l0.7,0.2l0.7,0.2l0.7,0.2
		l0.7,0.2l0.7,0.2l0.7,0.2l0.7,0.2l0.7,0.2l0.7,0.2l0.7,0.2l0.7,0.2l0.7,0.2l0.7,0.2l0.7,0.2l0.7,0.2l0.7,0.2l0.7,0.2l0.7,0.2
		l0.7,0.2l0.7,0.2l0.7,0.2l0.7,0.3l0.7,0.2l0.7,0.3l0.7,0.2l0.7,0.3l0.7,0.3l0.7,0.3l0.7,0.3l0.7,0.3l0.7,0.3l0.7,0.3l0.6,0.3
		l0.7,0.3l0.7,0.3l0.6,0.3l0.6,0.3l0.6,0.3l0.6,0.3l0.6,0.3l0.6,0.3l0.6,0.3l0.6,0.3l0.6,0.3l0.6,0.3l0.6,0.3l0.6,0.3l0.6,0.3
		l0.6,0.3l0.6,0.3l0.6,0.3l0.6,0.3l0.6,0.3l1.3,0.6l1.3,0.6l1.3,0.6l1.3,0.6l1.3,0.6l1.3,0.6l1.3,0.6l1.3,0.6l1.2,0.6l1.3,0.6
		l1.2,0.6l1.2,0.6l1.2,0.6l1.2,0.6l1.2,0.6l1.2,0.6l1.2,0.6l1.2,0.6l1.2,0.7l1.2,0.7l1.2,0.7l1.2,0.7l0.5,0.3l0.5,0.3l0.5,0.3
		l0.5,0.3l0.5,0.3l0.5,0.3l0.5,0.3l0.5,0.3l0.5,0.3l0.5,0.3l0.5,0.3l0.5,0.3l0.5,0.3l0.5,0.3l0.5,0.3l0.5,0.3l0.5,0.3l0.5,0.3
		l0.5,0.3l0.5,0.3l0.5,0.3l0.5,0.3l0.5,0.3l0.5,0.3l0.5,0.3l0.5,0.3l0.5,0.3l0.5,0.3l0.5,0.3l0.5,0.3l0.5,0.3l0.5,0.3l0.5,0.3
		l0.5,0.3l0.5,0.3l0.5,0.3l0.5,0.3l0.5,0.3l0.5,0.3l0.5,0.3l0.5,0.3l0.5,0.3l0.5,0.3l0.5,0.3l0.5,0.3l0.5,0.3l0.5,0.4l0.5,0.3
		l0.5,0.4l0.5,0.4l0.5,0.4l0.5,0.4l0.5,0.4l0.5,0.4l0.5,0.4l0.5,0.4l0.5,0.4l0.5,0.4l0.5,0.4l0.5,0.4l0.4,0.4l0.4,0.4l0.4,0.4
		l0.4,0.4l0.4,0.4l0.4,0.4l0.4,0.4l0.4,0.4l0.4,0.4l0.4,0.4l0.4,0.4l0.4,0.4l0.4,0.4l0.4,0.4l0.4,0.4l0.4,0.4l0.4,0.4l0.4,0.4
		l0.4,0.4l0.4,0.4l0.4,0.4l0.4,0.4l0.4,0.4l0.4,0.4l0.4,0.4l0.4,0.4l0.4,0.4l0.4,0.4l0.4,0.4l0.4,0.4l0.4,0.4l0.4,0.4l0.4,0.4
		l0.4,0.4l0.4,0.4l0.4,0.4l0.4,0.4l0.4,0.4l0.4,0.4l0.4,0.4l0.4,0.4l0.4,0.4l0.4,0.4l0.4,0.4l0.4,0.4l0.4,0.4l0.4,0.4l0.4,0.4
		l0.4,0.4l0.4,0.4l0.4,0.4l0.4,0.4l0.4,0.4l0.4,0.4l0.4,0.4l0.4,0.4l0.4,0.4l0.4,0.4l0.4,0.4l0.4,0.4l0.4,0.4l0.4,0.4l0.4,0.4
		l0.4,0.4l0.4,0.4l0.4,0.4l0.4,0.4l0.4,0.4l0.3,0.4l0.3,0.4l0.3,0.4l0.3,0.4l0.3,0.4l0.3,0.4l0.3,0.4l0.3,0.4l0.3,0.4l0.3,0.4
		l0.3,0.4l0.3,0.4l0.3,0.4l0.3,0.4l0.3,0.4l0.3,0.4l0.3,0.4l0.3,0.4l0.3,0.4l0.3,0.4l0.3,0.4l0.3,0.4l0.3,0.4l0.3,0.4l0.3,0.5
		l0.3,0.4l0.3,0.4l0.3,0.4l0.3,0.5l0.3,0.5l0.3,0.5l0.3,0.4l0.3,0.5l0.3,0.5l0.3,0.5l0.3,0.5l0.3,0.5l0.3,0.5l0.3,0.5l0.3,0.5
		l0.3,0.5l0.3,0.5l0.3,0.5l0.3,0.5l0.3,0.5l0.3,0.5l0.3,0.5l0.3,0.5l0.3,0.5l0.3,0.5l0.3,0.5l0.3,0.5l0.3,0.5l0.3,0.5l0.3,0.5
		l0.3,0.5l0.3,0.5l0.3,0.5l0.3,0.5l0.3,0.5l0.3,0.5l0.3,0.5l0.3,0.5l0.3,0.5l0.3,0.5l0.3,0.5l0.3,0.5l0.2,0.5l0.3,0.5l0.2,0.5
		l0.2,0.5l0.2,0.5l0.2,0.5l0.2,0.5l0.2,0.5l0.2,0.5l0.2,0.5l0.2,0.5l0.2,0.5l0.2,0.5l0.2,0.5l0.2,0.5l0.2,0.5l0.2,0.5l0.2,0.5
		l0.2,0.5l0.2,0.5l0.2,0.5l0.2,0.5l0.2,0.5l0.2,0.5l0.2,0.5l0.2,0.5l0.2,0.5l0.2,0.5l0.2,0.5l0.2,0.5l0.2,0.5l0.2,0.5l0.2,0.5
		l0.2,0.5l0.2,0.5l0.2,0.5l0.2,0.5l0.2,0.5l0.2,0.5l0.2,0.5l0.2,0.5l0.2,0.5l0.2,0.5l0.2,0.5l0.2,0.5l0.2,0.5l0.2,0.5l0.2,0.5
		l0.2,0.5l0.2,0.5l0.2,0.5l0.2,0.5l0.2,0.5l0.2,0.5l0.2,0.5l0.2,0.5l0.2,0.5l0.2,0.5l0.2,0.5l0.2,0.5l0.2,0.5l0.4,1l0.3,1l0.3,1
		l0.3,1l0.3,1l0.3,1l0.3,1l0.3,1l0.3,1l0.3,1l0.3,1l0.3,1l0.3,1l0.3,1l0.3,1l0.3,1l0.3,1l0.3,1.1l0.3,1l0.3,1l0.3,1.1l0.2,1l0.2,1.1
		l0.2,1.1l0.2,1.1l0.2,1.1l0.2,1.1l0.2,1.1l0.2,1.1l0.2,1.1l0.2,1.1l0.2,1.1l0.2,1.1l0.2,1.1l0.2,1.1l0.2,1.1l0.2,1.1l0.2,1.1
		l0.2,1.1l0.2,1.1l0.2,1.1l0.2,1.1l0.2,1.1l0.2,1.1l0.2,1.1l0.1,1.1l0.1,1.1l0.1,1.1l0.1,1.1l0.1,1.1l0.1,1.1l0.1,1.1l0.1,1.1
		l0.1,1.1l0.1,1.1l0.1,1.1l0.1,1.1l0.1,1.1l0.1,1.1l0.1,1.1l0.1,1.1l0.1,1.1l0.1,1.1l0.1,1.1l0.1,1.1l0.1,1.1l0.1,1.1l0.1,1.1
		l0.1,1.1l0,1.1l0.1,1.1l0,1.1l0,1.1l0,1.1l0,1.1l0,1.1l0,1.1l0,1.1l0,1.1l0,1.1l0,1.1l0,1.1v1.1l0,1.1l0,1.1l0,1.1l0,1.1l0,1.1
		l0,1.1l0,1.1l0,1.1l0,1.1l0,1.1l0,1.1l0,1.1l0,1.1l0,1.1l0,1.1l-0.1,1.1l0,1.1l-0.1,1.1l-0.1,1.1l-0.1,1.1l-0.1,1.1l-0.1,1.1
		l-0.1,1.1l-0.1,1.1l-0.1,1.1l-0.1,1l-0.1,1.1l-0.1,1l-0.1,1l-0.1,1.1l-0.1,1l-0.1,1l-0.1,1l-0.1,1l-0.1,1l-0.1,1l-0.1,1l-0.1,1
		l-0.1,1l-0.1,1l-0.1,1l-0.1,1l-0.1,1l-0.1,1l-0.1,1l-0.1,0.5l-0.1,0.5l-0.1,0.5l-0.1,0.5l-0.1,0.5l-0.1,0.5l-0.1,0.5l-0.1,0.5
		l-0.1,0.5l-0.1,0.5l-0.1,0.5l-0.1,0.5l-0.1,0.5l-0.1,0.5l-0.1,0.5l-0.1,0.5l-0.1,0.5l-0.1,0.5l-0.1,0.5l-0.1,0.5l-0.1,0.5l-0.1,0.5
		l-0.1,0.5l-0.1,0.5l-0.1,0.5l-0.1,0.5l-0.1,0.5l-0.1,0.5l-0.1,0.5l-0.1,0.5l-0.1,0.5l-0.1,0.5l-0.1,0.5l-0.1,0.5l-0.1,0.5l-0.1,0.5
		l-0.3,1l-0.3,1.1l-0.3,1.1l-0.3,1.1l-0.3,1.1l-0.3,1.1l-0.3,1.1l-0.3,1.1l-0.3,1.1l-0.3,1.1l-0.3,1.1l-0.3,1.1l-0.3,1.1l-0.4,1.1
		l-0.4,1.1l-0.4,1.1l-0.4,1.1l-0.4,1.1l-0.4,1.1l-0.4,1.1l-0.4,1.1l-0.4,1.1l-0.4,1.1l-0.4,1.1l-0.8,2.2l-0.8,2.2l-0.8,2.2l-1.6,4.5
		l-0.8,2.2l-0.8,2.3l-0.8,2.3l-0.8,2.3l-0.4,1.1l-0.4,1.1l-0.4,1.1l-0.4,1.1l-0.4,1.1l-0.4,1.1l-0.4,1.1l-0.4,1.1l-0.4,1.1l-0.4,1.1
		l-0.4,1.1l-0.4,1.1l-0.4,1.1l-0.4,1.1l-0.3,1.1l-0.3,1.1l-0.3,1.1l-0.3,1.1l-0.3,1.1l-0.3,1.1l-0.3,1.1l-0.3,1.1l-0.3,1.1l-0.3,1.1
		l-0.3,1.1l-0.3,1.1l-0.1,0.5l-0.1,0.5l-0.1,0.5l-0.1,0.5l-0.1,0.5l-0.1,0.5l-0.1,0.5l-0.1,0.5l-0.1,0.5l-0.1,0.5l-0.1,0.5l-0.1,0.5
		l-0.1,0.5l-0.1,0.5l-0.1,0.5l-0.1,0.5l-0.1,0.5l-0.1,0.5l-0.1,0.5l-0.1,0.5l-0.1,0.5l-0.1,0.5l-0.1,0.5l-0.1,0.5l-0.1,0.5l-0.1,0.5
		l-0.1,0.5l-0.1,0.5l-0.1,0.5l-0.1,0.5l-0.1,0.5l-0.1,0.5l-0.1,0.5l-0.1,0.5l-0.1,0.5l-0.1,0.5l-0.1,0.5l-0.1,0.5l-0.1,0.5l-0.1,0.5
		l-0.1,0.5l-0.1,0.5l-0.1,0.5l-0.1,0.5l-0.1,0.5l-0.1,0.5l0,0.5l-0.1,0.5l0,0.5l0,0.5l0,0.5l0,0.5l0,0.5l0,0.4l0,0.5l0,0.5l0,0.4
		l0,0.5l0,0.4l0,0.4l0,0.4l0,0.4l0,0.4l0,0.4l0,0.4l0,0.4v0.4l0,0.4v0.4l0,0.4l0,0.4l0,0.4l0,0.4l0,0.4l0,0.4l0,0.4l0,0.4l0,0.4
		l0,0.4l0,0.4l0,0.4l0,0.4l0,0.4l0,0.4l0.2,1.8l0.2,1.8l0.2,1.8l0.2,1.8l0.2,1.8l0.2,1.8l0.2,1.8l0.2,1.8l0.2,1.8l0.2,1.7l0.2,1.7
		l0.2,1.7l0.2,1.7l0.2,1.7l0.2,1.7l0.2,1.7l0.2,1.7l0.2,1.7l0.1,1.7l0.1,1.6l0.1,1.6l0.1,1.6l0.1,1.6l0.1,1.6l0.1,1.6l0.1,1.6
		l0.1,1.6l0.1,1.6l0.1,1.5l0.1,1.5l0.1,1.5l0,0.8l0,0.8l0,0.8l0,0.8l0,0.8l0,0.8l0,0.8l0,0.7l0,0.7l0,0.7l0,0.7l0,0.7l0,0.7l0,0.7
		l0,0.7l0,0.7l0,0.7l0,0.7l0,0.7l0,0.7l0,0.7l0,0.7l0,0.7v0.7l0,0.7v0.7v0.7v0.7v0.7l0,0.7l0,0.7l0,0.7l0,0.7l0,0.7l0,0.7l0,0.7
		l0,0.7l0,0.7l0,0.7l0,0.7l0,0.7l0,0.7l0,0.7l0,0.7l0,0.7l0,0.7l0,0.7l0,0.7l0,0.7l0,0.7l0,0.7l0,0.7l0,0.7l0,0.7l0,0.7l0,0.7l0,0.7
		l0,0.7l-0.1,0.7l0,0.7l-0.1,0.7l0,0.7l-0.1,0.7l-0.1,0.7l-0.1,0.7l-0.1,0.7l-0.1,0.7l-0.1,0.7l-0.1,0.7l-0.1,0.6l-0.1,0.7l-0.1,0.6
		l-0.1,0.7l-0.1,0.6l-0.1,0.6l-0.1,0.6l-0.1,0.6l-0.1,0.6l-0.1,0.6l-0.1,0.6l-0.1,0.6l-0.1,0.6l-0.1,0.6l-0.1,0.6l-0.1,0.6l-0.1,0.6
		l-0.1,0.6l-0.1,0.6l-0.1,0.6l-0.1,0.6l-0.1,0.6l-0.1,0.6l-0.1,0.6l-0.1,0.6l-0.1,0.6l-0.1,0.6l-0.1,0.6l-0.1,0.6l-0.1,0.6l-0.1,0.6
		l-0.1,0.6l-0.1,0.6l-0.1,0.6l-0.1,0.6l-0.1,0.6l-0.1,0.6l-0.1,0.6l-0.1,0.6l-0.1,0.6l-0.1,0.6l-0.1,0.6l-0.1,0.6l-0.1,0.6l-0.1,0.6
		l-0.1,0.6l-0.1,0.6l-0.2,0.6l-0.2,0.6l-0.2,0.6l-0.2,0.6l-0.2,0.6l-0.2,0.6l-0.2,0.6l-0.2,0.6l-0.2,0.6l-0.2,0.6l-0.2,0.6l-0.2,0.6
		l-0.2,0.6l-0.2,0.6l-0.2,0.6l-0.2,0.6l-0.2,0.6l-0.2,0.6l-0.2,0.6l-0.2,0.6l-0.2,0.6l-0.2,0.6l-0.2,0.6l-0.2,0.6l-0.2,0.6l-0.2,0.6
		l-0.2,0.6l-0.2,0.6l-0.2,0.6l-0.2,0.6l-0.2,0.6l-0.2,0.6l-0.2,0.6l-0.2,0.6l-0.2,0.6l-0.2,0.6l-0.2,0.6l-0.2,0.6l-0.2,0.6l-0.2,0.6
		l-0.2,0.6l-0.2,0.6l-0.2,0.6l-0.2,0.6l-0.2,0.6l-0.2,0.6l-0.2,0.6l-0.2,0.6l-0.2,0.6l-0.2,0.6l-0.2,0.6l-0.2,0.6l-0.2,0.6l-0.2,0.6
		l-0.2,0.6l-0.3,0.6l-0.3,0.6l-0.3,0.6l-0.3,0.6l-0.3,0.6l-0.3,0.6l-0.3,0.6l-0.3,0.6l-0.3,0.6l-0.3,0.6l-0.3,0.6l-0.3,0.6l-0.3,0.6
		l-0.3,0.6l-0.3,0.6l-0.3,0.6l-0.3,0.6l-0.3,0.6l-0.3,0.6l-0.3,0.6l-0.3,0.6l-0.3,0.6l-0.3,0.6l-0.1,0.3l-0.1,0.3l-0.1,0.3l-0.1,0.3
		l-0.1,0.3l-0.1,0.3l-0.2,0.3l-0.1,0.3l-0.2,0.3l-0.2,0.3l-0.2,0.3l-0.2,0.3l-0.2,0.3l-0.2,0.3l-0.2,0.3l-0.2,0.3l-0.2,0.3l-0.2,0.3
		l-0.2,0.3l-0.2,0.3l-0.2,0.3l-0.2,0.3l-0.2,0.3l-0.2,0.3l-0.2,0.3l-0.2,0.3l-0.2,0.3l-0.2,0.3l-0.2,0.3l-0.2,0.3l-0.2,0.3l-0.2,0.3
		l-0.2,0.3l-0.2,0.3l-0.4,0.5l-0.4,0.5l-0.4,0.5l-0.4,0.5l-0.4,0.5l-0.4,0.5l-0.4,0.5l-0.4,0.5l-0.4,0.5l-0.4,0.5l-0.4,0.5l-0.4,0.5
		l-0.4,0.5l-0.4,0.5l-0.4,0.5l-0.4,0.5l-0.5,0.5l-0.5,0.5l-0.5,0.5l-0.5,0.5l-0.5,0.5l-0.5,0.5l-0.5,0.5l-0.5,0.5l-0.5,0.5l-0.5,0.5
		l-0.5,0.5l-0.5,0.5l-0.5,0.5l-0.5,0.5l-0.5,0.5l-0.5,0.5l-0.5,0.5l-0.5,0.5l-0.5,0.5l-0.5,0.5l-0.6,0.5l-0.6,0.5l-0.6,0.5l-0.6,0.5
		l-0.6,0.5l-0.6,0.5l-0.6,0.5l-0.6,0.5l-0.6,0.5l-0.6,0.4l-0.6,0.4l-0.6,0.4l-0.6,0.4l-0.6,0.4l-0.6,0.4l-0.6,0.4l-0.6,0.4l-0.6,0.4
		l-0.6,0.4l-0.6,0.4l-0.6,0.4l-0.6,0.4l-0.6,0.4l-0.7,0.4l-0.7,0.4l-0.7,0.4l-0.7,0.4l-0.7,0.4l-0.7,0.4l-0.7,0.4l-0.7,0.4l-0.7,0.4
		l-0.7,0.4l-0.7,0.4l-0.7,0.4l-0.7,0.4l-0.7,0.4l-0.7,0.4l-0.7,0.4l-0.7,0.4l-0.7,0.4l-0.7,0.4l-0.7,0.4l-0.7,0.4l-0.7,0.4l-0.7,0.4
		l-0.7,0.4l-0.7,0.4l-0.7,0.4l-0.7,0.4l-0.8,0.4l-0.8,0.4l-0.8,0.4l-0.8,0.4l-0.8,0.4l-0.8,0.4l-0.8,0.3l-0.8,0.3l-0.8,0.3l-0.8,0.3
		l-0.8,0.3l-0.8,0.3l-0.8,0.3l-0.8,0.3l-0.8,0.3l-0.8,0.3l-0.8,0.3l-0.8,0.3l-0.8,0.3l-0.8,0.3l-0.8,0.3l-0.8,0.3l-0.8,0.3l-0.8,0.3
		l-0.8,0.3l-0.8,0.3l-0.8,0.3l-0.8,0.3l-0.8,0.3l-0.8,0.3l-0.9,0.3l-0.9,0.3l-0.9,0.3l-0.9,0.3l-0.9,0.3l-0.9,0.3l-0.9,0.3l-0.9,0.3
		l-0.9,0.3l-0.9,0.3l-0.9,0.3l-0.9,0.3l-0.9,0.3l-0.9,0.3l-0.9,0.2l-0.9,0.2l-0.9,0.2l-0.9,0.2l-0.9,0.2l-0.9,0.2l-0.9,0.2l-0.9,0.2
		l-0.9,0.2l-0.9,0.2l-0.9,0.2l-0.9,0.2l-0.9,0.2l-0.9,0.2l-0.9,0.2l-0.9,0.2l-0.9,0.2l-0.9,0.2l-0.9,0.2l-0.9,0.2l-0.9,0.2l-0.9,0.2
		l-0.9,0.2l-0.9,0.2l-0.9,0.2l-1,0.2l-0.9,0.2l-1,0.2l-1,0.2l-1,0.2l-1,0.2l-1,0.2l-1,0.2l-1,0.2l-1,0.2l-1,0.1l-1,0.1l-1,0.1
		l-1,0.1l-1,0.1l-1,0.1l-1,0.1l-1,0.1l-1,0.1l-1,0.1l-1,0.1l-1,0.1l-1,0.1l-1,0.1l-1,0.1l-1,0.1l-1,0.1l-1,0.1l-1,0.1l-1,0.1l-1,0.1
		l-1,0.1l-1,0.1l-1,0.1l-1,0.1l-1,0.1l-1,0.1l-1,0.1l-1,0.1l-1,0.1l-1,0l-1,0l-1,0l-1,0l-1,0l-1,0l-1,0l-1,0l-1,0l-1,0l-1,0l-1,0
		l-1,0h-1h-1.1h-1l-1.1,0l-1.1,0l-1.1,0l-1.1,0l-1.1,0l-1.1,0l-1.1,0l-1.1,0l-1.1,0l-1.1,0l-1.1,0l-1.1,0l-1.1,0l-1.1-0.1l-1.1-0.1
		l-1.1-0.1l-1.1-0.1l-1.1-0.1l-1.1-0.1l-1.1-0.1l-1.1-0.1l-1.1-0.1l-1.1-0.1l-1.1-0.1l-1.1-0.1l-1.1-0.1L969,726l-1.1-0.1l-0.4,0
		l-0.4,0l-0.5-0.1l-0.5-0.1l-0.5-0.1l-0.5-0.1l-0.6-0.1l-0.6-0.1l-0.6-0.1l-0.6-0.1l-0.7-0.1l-0.7-0.1l-0.7-0.1l-0.7-0.1l-0.7-0.1
		l-0.8-0.1l-0.8-0.1l-0.8-0.2l-0.8-0.2l-0.9-0.2l-0.9-0.2l-0.9-0.2l-0.9-0.2l-0.9-0.2l-1-0.2l-1-0.2l-1-0.2l-1-0.2l-1-0.2l-1-0.2
		l-1.1-0.3l-1.1-0.3l-1.1-0.3l-1.1-0.3l-0.6-0.1l-0.6-0.2l-0.6-0.1l-0.6-0.2l-0.6-0.2l-0.6-0.2l-0.6-0.2l-0.6-0.2l-0.6-0.2l-0.6-0.2
		l-0.6-0.2l-0.6-0.2l-0.6-0.2l-0.6-0.2l-0.6-0.2l-0.6-0.2l-0.6-0.2l-0.6-0.2l-0.6-0.2l-0.6-0.2l-0.6-0.2l-0.6-0.2l-0.6-0.2l-0.6-0.2
		l-0.6-0.2l-0.6-0.2l-0.6-0.2l-0.6-0.2l-0.6-0.2l-0.7-0.2l-0.7-0.2l-0.7-0.2l-0.7-0.2l-0.7-0.2l-0.7-0.2l-0.7-0.2l-0.7-0.2l-0.7-0.2
		l-0.7-0.2l-0.7-0.2l-0.7-0.2l-0.7-0.2l-0.7-0.2l-0.7-0.3l-0.7-0.3l-0.7-0.3l-0.7-0.3l-0.7-0.3l-0.7-0.3l-0.7-0.3l-0.7-0.3l-0.7-0.3
		l-0.7-0.3l-0.7-0.3L906,709l-0.7-0.3l-0.7-0.3l-0.7-0.3l-0.7-0.3l-0.7-0.3l-0.7-0.3l-0.7-0.3l-0.7-0.3l-0.7-0.3l-0.7-0.3l-0.7-0.3
		l-0.7-0.3l-0.7-0.3l-0.7-0.3l-0.7-0.3l-0.7-0.3l-0.7-0.3l-0.7-0.3l-0.7-0.4l-0.7-0.4l-0.7-0.4l-0.7-0.4l-0.7-0.4l-0.7-0.4l-0.7-0.4
		l-0.7-0.4L887,700l-0.7-0.4l-0.7-0.4l-0.7-0.4l-0.7-0.4l-0.7-0.4l-0.7-0.4l-0.7-0.4l-0.7-0.4l-0.7-0.4L880,696l-0.7-0.4l-0.7-0.4
		l-0.7-0.4l-0.7-0.4l-0.7-0.4l-0.7-0.4L875,693l-0.7-0.4l-0.7-0.4l-0.7-0.4l-0.7-0.5l-0.7-0.5l-0.7-0.5l-0.7-0.5l-0.7-0.5l-0.7-0.5
		l-0.7-0.5l-0.7-0.5l-0.7-0.5l-0.7-0.5l-0.7-0.5l-0.7-0.5l-0.7-0.5l-0.7-0.5l-0.7-0.5l-0.7-0.5l-0.7-0.5l-0.7-0.5l-0.7-0.5l-0.7-0.5
		l-0.7-0.5l-0.7-0.5l-0.7-0.5l-0.7-0.5l-0.7-0.6l-0.7-0.6l-0.7-0.6l-0.6-0.6l-0.6-0.6l-0.6-0.6l-0.6-0.6l-0.6-0.6l-0.6-0.6l-0.6-0.6
		l-0.6-0.6l-0.6-0.6l-0.3-0.3l-0.3-0.3l-0.3-0.3l-0.3-0.3l-0.3-0.3l-0.3-0.3l-0.3-0.3l-0.3-0.3l-0.3-0.3l-0.3-0.3l-0.3-0.3l-0.3-0.3
		l-0.3-0.3l-0.3-0.3l-0.3-0.3l-0.3-0.3l-0.3-0.3l-0.3-0.3l-0.3-0.3l-0.3-0.3l-0.3-0.3l-0.3-0.3l-0.3-0.3l-0.3-0.3l-0.3-0.3l-0.3-0.3
		l-0.3-0.3l-0.3-0.3l-0.3-0.3l-0.3-0.3l-0.3-0.3l-0.3-0.3l-0.3-0.3l-0.3-0.3l-0.3-0.3l-0.3-0.3l-0.3-0.3l-0.3-0.3l-0.3-0.3l-0.3-0.3
		l-0.3-0.3l-0.3-0.4l-0.3-0.3l-0.3-0.4l-0.3-0.4l-0.3-0.4l-0.3-0.4l-0.3-0.4l-0.3-0.4l-0.3-0.4l-0.3-0.4l-0.3-0.4l-0.3-0.4l-0.3-0.4
		l-0.3-0.4l-0.3-0.4l-0.3-0.4l-0.3-0.4l-0.3-0.4l-0.3-0.4l-0.3-0.4l-0.3-0.4l-0.2-0.4l-0.2-0.4l-0.3-0.4l-0.2-0.4l-0.2-0.4l-0.2-0.4
		l-0.2-0.4l-0.2-0.4l-0.2-0.4l-0.2-0.4l-0.2-0.4l-0.2-0.4l-0.2-0.4l-0.2-0.4l-0.2-0.4l-0.2-0.4l-0.2-0.4l-0.2-0.4l-0.2-0.4l-0.2-0.4
		l-0.2-0.4l-0.2-0.4l-0.2-0.4l-0.2-0.4l-0.2-0.4l-0.2-0.4l-0.2-0.4l-0.2-0.4l-0.2-0.4l-0.2-0.4l-0.2-0.4l-0.2-0.4l-0.2-0.4l-0.2-0.4
		l-0.2-0.4l-0.2-0.4l-0.2-0.4l-0.2-0.4l-0.1-0.1l-0.3-0.5l-0.2-0.4l-0.2-0.5l-0.3-0.5l-0.3-0.6l-0.3-0.7l-0.4-0.8l-0.4-0.8l-0.4-0.9
		l-0.4-1l-0.2-0.5l-0.2-0.5l-0.2-0.5l-0.2-0.6l-0.2-0.6l-0.3-0.6l-0.3-0.6l-0.3-0.6l-0.3-0.6l-0.3-0.6l-0.3-0.7l-0.3-0.7l-0.3-0.7
		l-0.3-0.7l-0.3-0.7l-0.3-0.7l-0.3-0.7l-0.3-0.8l-0.3-0.8l-0.3-0.8l-0.3-0.8l-0.3-0.8l-0.3-0.8l-0.3-0.8l-0.3-0.8l-0.3-0.9l-0.3-0.9
		l-0.3-0.9l-0.3-0.9l-0.3-0.9l-0.3-0.9l-0.3-0.9l-0.3-0.9l-0.3-0.9l-0.3-1l-0.3-1l-0.3-1l-0.3-1l-0.3-1l-0.3-1l-0.3-1l-0.3-1l-0.3-1
		l-0.3-1l-0.3-1l-0.3-1.1l-0.3-1.1l-0.3-1.1l-0.3-1.1l-0.3-1.1l-0.3-1.1l-0.1-0.5l-0.1-0.6l-0.1-0.5l-0.1-0.6l-0.1-0.6l-0.1-0.6
		l-0.1-0.6l-0.1-0.6l-0.1-0.6l-0.1-0.6l-0.1-0.6l-0.1-0.6l-0.1-0.6l-0.1-0.6l-0.1-0.6l-0.1-0.6l-0.1-0.6l-0.1-0.6l-0.1-0.6l-0.1-0.6
		l-0.1-0.6l-0.1-0.6l-0.1-0.6l-0.1-0.6l-0.1-0.6l-0.1-0.6l-0.1-0.6l-0.1-0.6l-0.1-0.6l-0.1-0.6l-0.1-0.6l-0.1-0.6l-0.1-0.6l-0.1-0.6
		l-0.1-0.6l-0.1-0.6l-0.1-0.6l-0.1-0.6l-0.1-0.6l-0.1-0.6l-0.1-0.6l-0.1-0.6l-0.1-0.6l-0.1-0.6l-0.1-0.6l-0.1-0.6l-0.1-0.6l-0.1-0.6
		l-0.1-0.6l-0.1-0.6l-0.1-0.6l-0.1-0.6l-0.1-0.6l-0.1-0.6l-0.1-0.6l-0.1-0.6l-0.1-0.6l-0.1-0.6l-0.1-0.6l-0.1-0.6l0-0.6l0-0.6l0-0.6
		l0-0.6l0-0.6l0-0.6l0-0.6l0-0.6l0-0.6l0-0.6l0-0.6l0-0.6l0-0.6l0-0.6l0-0.6l0-0.6l0-0.6l0-0.6v-0.6l0-0.6l0-0.6v-0.6l0-0.6l0-0.6
		l0-0.6l0-0.6l0-0.6l0-0.6l0-0.6l0-0.6l0-0.6l0-0.6l0-0.6l0-0.6l0-0.6l0-0.6l0.1-0.6l0-0.6l0.1-0.6l0.1-0.6l0.1-0.6l0.1-0.6l0.2-1.8
		l0.2-1.8l0.2-1.8l0.2-1.7l0.2-1.7l0.2-1.7l0.2-1.7l0.2-1.7l0.2-1.7l0.1-1.7l0.1-1.7l0.1-1.7l0.1-1.6l0.1-1.6l0.1-1.6l0.1-1.6
		l0.1-1.6l0.1-1.6l0.1-1.6l0.1-1.6l0.1-1.6l0.1-1.6l0.1-1.5l0.1-1.5l0.1-1.5l0.1-1.5l0.1-1.5l0.1-1.5l0.1-1.5l0.1-1.5l0-1.5l0-1.5
		l0-1.5l0-1.4l0-1.4l0-1.4l0-1.4l0-1.4l0-1.4l0-1.4l0-1.4v-1.4v-1.4l0-1.4l0-1.3l0-1.3l0-1.3l0-1.3l0-1.3l0-1.3l0-1.3l0-1.3l0-1.3
		l0-1.3l0-1.3l0-1.3l0-1.2l-0.1-1.2l-0.1-1.2l-0.1-1.2l-0.1-1.2l-0.1-1.2l-0.1-1.2l-0.1-1.2l-0.1-1.2l-0.1-1.2l-0.1-1.2l-0.1-1.2
		l-0.1-1.2l-0.1-1.2l-0.1-1.1l-0.1-1.1l-0.1-1.1l-0.1-1.1l-0.1-1.1l-0.1-1.1l-0.1-1.1l-0.1-1.1l-0.1-1.1l-0.1-1.1l-0.1-1.1l-0.1-1.1
		l-0.1-1.1l-0.1-1.1l-0.1-1.1l-0.1-1.1l-0.1-1.1l-0.1-1.1l-0.1-1l-0.1-1l-0.1-1l-0.1-1l-0.1-1l-0.1-1l-0.1-1l-0.1-1l-0.1-1l-0.1-1
		l-0.1-1l-0.1-1l-0.1-1l-0.1-1l-0.2-1l-0.1-1l-0.2-1l-0.1-1l-0.2-1l-0.2-1l-0.2-1l-0.2-0.9l-0.2-1l-0.2-0.9l-0.2-0.9l-0.2-0.9
		L795,378l-0.3-1.9l-0.3-1.8l-0.3-1.8l-0.3-1.8l-0.3-1.8l-0.3-1.8l-0.3-1.8l-0.3-1.8l-0.6-3.5l-0.6-3.5l-0.3-1.7l-0.3-1.7l-0.3-1.7
		l-0.3-1.7l-0.3-1.7l-0.3-1.7l-0.3-1.7l-0.3-1.7l-0.3-1.7l-0.1-0.9l-0.1-0.9l-0.1-0.9l-0.1-0.9l-0.1-0.9l-0.1-0.9l-0.1-0.9l-0.1-0.9
		l-0.1-0.9l-0.1-0.9l-0.1-0.9l-0.1-0.9l-0.1-0.9l-0.1-0.9l-0.1-0.9l-0.1-0.9l-0.1-0.9l-0.1-0.9l-0.1-0.9l-0.1-0.9l-0.1-0.9l-0.1-0.9
		l-0.1-0.9l-0.1-0.9l-0.1-0.9l-0.1-0.9l-0.1-0.9l-0.1-0.9l-0.1-0.9l-0.1-0.9l-0.1-0.9l-0.1-0.9l-0.1-0.9l-0.1-0.9l-0.1-0.9l-0.1-0.9
		l-0.1-0.9l-0.1-0.9l-0.1-0.9l-0.1-0.9l0-0.9l0-0.9l0-0.9l0-0.9l0-0.9l0-0.9l0-0.9l0-0.9l0-0.9l0-0.9l0-0.9l0-0.9l0-0.9l0-0.9v-0.9
		v-0.9l0-0.9l0-0.9l0-1l0-1l0-1l0-1l0-1l0-1l0-1l0-1l0-1l0.1-1l0.1-1l0.1-1l0.1-1l0.1-1l0.1-1l0.1-1l0.1-1l0.1-1l0.1-1l0.1-1l0.1-1
		l0.1-1l0.1-1l0.1-1l0.1-1.1l0.1-1.1l0.1-1.1l0.1-1.1l0.2-1.1l0.2-1.1l0.2-1.1l0.2-1.1l0.2-1.1l0.2-1.1l0.2-1.1l0.2-1.1l0.2-1.1
		l0.2-1.1l0.2-1.1l0.2-1.1l0.1-0.8l0.2-0.8l0.2-0.8l0.2-0.8l0.2-0.8l0.2-0.8l0.2-0.8l0.2-0.8l0.2-0.8l0.2-0.8l0.2-0.8l0.2-0.8
		l0.2-0.8l0.2-0.8l0.2-0.8l0.2-0.8l0.2-0.8l0.2-0.8l0.2-0.8l0.2-0.8l0.2-0.8l0.2-0.8l0.2-0.8l0.2-0.8l0.2-0.8l0.2-0.8l0.2-0.8
		l0.2-0.8l0.2-0.8l0.2-0.8l0.2-0.8l0.2-0.8l0.2-0.8l0.2-0.8l0.2-0.8l0.2-0.8l0.2-0.8l0.2-0.8l0.2-0.8l0.2-0.8l0.2-0.8l0.2-0.8
		l0.2-0.8l0.2-0.8l0.2-0.8l0.2-0.8l0.2-0.8l0.3-0.8l0.3-0.8l0.3-0.8l0.3-0.8l0.3-0.8l0.3-0.8l0.3-0.8l0.3-0.8l0.3-0.8l0.3-0.8
		l0.3-0.8l0.3-0.8l0.3-0.8l0.3-0.8l0.3-0.8l0.3-0.8l0.3-0.8l0.3-0.8l0.3-0.8l0.3-0.8l0.3-0.8l0.3-0.8l0.3-0.8l0.3-0.8l0.3-0.8
		l0.3-0.8l0.3-0.8l0.3-0.8l0.3-0.8l0.3-0.8l0.3-0.8l0.3-0.8l0.3-0.8l0.3-0.8l0.3-0.8l0.3-0.8l0.4-0.8l0.4-0.8l0.4-0.8l0.4-0.8
		l0.4-0.8l0.4-0.8l0.4-0.8l0.4-0.8l0.4-0.8l0.4-0.8l0.4-0.8l0.4-0.8l0.4-0.8l0.4-0.8l0.4-0.8l0.4-0.8l0.4-0.7l0.4-0.7l0.4-0.7
		l0.4-0.7l0.4-0.7l0.4-0.7l0.4-0.7l0.4-0.7l0.4-0.7l0.4-0.7l0.4-0.7l0.4-0.7l0.4-0.7l0.4-0.7l0.4-0.7l0.4-0.7l0.4-0.7l0.4-0.7
		l0.5-0.7l0.5-0.7l0.5-0.7l0.5-0.7l0.5-0.7l0.5-0.7l0.5-0.7l0.5-0.7l0.5-0.7l0.5-0.7l0.5-0.7l0.5-0.7l0.5-0.7l0.5-0.7l0.5-0.7
		l0.5-0.7l0.6-0.7l0.6-0.7l0.6-0.7l0.6-0.7l0.6-0.7l0.6-0.7l0.6-0.7l0.6-0.7l0.6-0.7l0.6-0.7l0.6-0.7l0.6-0.7l0.6-0.7l0.6-0.7
		l0.6-0.7l0.6-0.7l0.6-0.7l0.6-0.7l0.6-0.7l0.6-0.7l0.6-0.7l0.6-0.7l0.6-0.7l0.6-0.6l0.6-0.6l0.6-0.6l0.6-0.6l0.6-0.6l0.7-0.6
		l0.7-0.6l0.7-0.6l0.7-0.6l0.7-0.6l0.7-0.6l0.7-0.6l0.7-0.6l0.7-0.6l0.7-0.6l0.7-0.6l0.7-0.6l0.7-0.6l0.7-0.6l0.7-0.6l0.7-0.6
		l0.7-0.6l0.7-0.6l0.7-0.6l0.7-0.6l0.7-0.6l0.7-0.6l0.7-0.6l0.7-0.6l0.7-0.6l0.7-0.6l0.7-0.6l0.7-0.5l0.7-0.5l0.7-0.5l0.7-0.5
		l0.7-0.5l0.7-0.5l0.7-0.5l0.7-0.5l0.7-0.5l0.7-0.5l0.8-0.5l0.8-0.5l0.8-0.5l0.8-0.5l0.8-0.5l0.8-0.5l0.8-0.5l0.8-0.5l0.8-0.5
		l0.8-0.5l0.8-0.5l0.8-0.5l0.8-0.5l0.8-0.5l0.8-0.5l0.8-0.5l0.8-0.5l0.8-0.5l0.8-0.5l0.8-0.5l0.8-0.4l0.8-0.4l0.8-0.4l0.8-0.4
		l0.8-0.4l0.8-0.4l0.8-0.4l0.8-0.4l0.8-0.4l0.8-0.4l0.8-0.4l0.8-0.4l0.8-0.4l0.8-0.4l0.8-0.4l0.8-0.4l0.8-0.4l0.8-0.4l0.8-0.4
		l0.8-0.4L905,86l0.8-0.4l0.8-0.4l0.8-0.4l0.8-0.4l0.8-0.4l0.8-0.4l0.8-0.4l0.9-0.4l0.8-0.4l0.9-0.4l0.9-0.3l0.9-0.3l0.9-0.3
		l0.9-0.3l0.9-0.3l0.9-0.3l0.9-0.3l0.9-0.3l0.9-0.3l0.9-0.3l0.9-0.3l0.9-0.3l0.9-0.3l0.9-0.3l0.9-0.3l0.9-0.3L928,77l0.9-0.3
		l0.9-0.3l0.9-0.3l0.9-0.3l0.9-0.3l0.9-0.3l0.9-0.3l0.9-0.3l0.9-0.3l0.9-0.3l0.9-0.3l0.9-0.2l0.9-0.2l0.9-0.2l0.9-0.2l0.9-0.2
		l0.9-0.2l0.9-0.2l0.9-0.2l0.9-0.2l0.9-0.2l0.9-0.2l0.9-0.2l0.9-0.2l0.9-0.2l0.9-0.2l0.9-0.2l0.9-0.2l0.9-0.2l0.9-0.2l0.9-0.2
		l0.9-0.2l0.9-0.2l0.9-0.2l0.9-0.2l0.9-0.2l0.9-0.2l0.9-0.2l0.9-0.1l0.9-0.1l0.9-0.1l0.9-0.1l0.9-0.1l0.9-0.1l0.9-0.1l0.9-0.1
		l0.9-0.1l0.9-0.1l0.9-0.1l0.9-0.1l0.9-0.1l0.9-0.1l0.9-0.1l0.9-0.1l0.9-0.1l0.9-0.1l0.9-0.1l0.9-0.1l0.9-0.1l0.9-0.1l0.9-0.1
		l0.9-0.1l0.9-0.1l0.9,0l0.9,0l0.9,0l0.9,0l0.9,0l0.9,0l0.9,0l0.9,0l0.9,0l0.9,0l0.9,0l0.9,0l0.9,0h0.9L998.2,65.6L998.2,65.6z
		 M996.5,81.1h-0.8l-0.8,0l-0.8,0l-0.8,0l-0.8,0l-0.8,0l-0.8,0l-0.9,0l-0.8,0l-0.8,0l-0.8,0l-0.9,0l-0.8,0l-0.8,0.1l-0.8,0.1
		l-0.9,0.1l-0.8,0.1l-0.8,0.1l-0.9,0.1l-0.8,0.1l-0.8,0.1l-0.8,0.1l-0.9,0.1l-0.8,0.1l-0.8,0.1l-0.8,0.1l-0.8,0.1l-0.8,0.1l-0.9,0.1
		l-0.8,0.1l-0.8,0.1l-0.8,0.1l-0.8,0.1l-0.8,0.1l-0.8,0.1l-0.8,0.1l-0.8,0.1l-0.8,0.1l-0.8,0.1l-0.8,0.1l-0.8,0.2l-0.8,0.2l-0.8,0.2
		l-0.8,0.2l-0.8,0.2l-0.8,0.2l-0.8,0.2l-0.8,0.2l-0.8,0.2l-0.8,0.2l-0.8,0.2l-0.8,0.2l-0.8,0.2l-0.8,0.2l-0.8,0.2l-0.8,0.2l-0.8,0.2
		l-0.8,0.2l-0.8,0.2l-0.8,0.2l-0.8,0.2l-0.8,0.2l-0.8,0.2l-0.8,0.2l-0.8,0.2l-0.8,0.2l-0.8,0.2l-0.8,0.2l-0.8,0.2l-0.8,0.2l-0.8,0.2
		l-0.8,0.3l-0.8,0.3l-0.8,0.3l-0.8,0.3l-0.8,0.3l-0.8,0.3l-0.8,0.3l-0.8,0.3l-0.8,0.3l-0.8,0.3l-0.8,0.3l-0.8,0.3l-0.8,0.3l-0.8,0.3
		l-0.8,0.3l-0.8,0.3l-0.8,0.3l-0.8,0.3l-0.8,0.3l-0.8,0.3l-0.8,0.3l-0.8,0.3l-0.8,0.3l-0.8,0.3l-0.8,0.3l-0.8,0.3l-0.8,0.3l-0.8,0.3
		l-0.8,0.3l-0.8,0.3l-0.8,0.4l-0.8,0.4l-0.8,0.4l-0.8,0.4l-0.8,0.4l-0.8,0.4l-0.8,0.4l-0.8,0.4l-0.8,0.4l-0.8,0.4l-0.8,0.4l-0.8,0.4
		l-0.8,0.4l-0.8,0.4l-0.8,0.4l-0.8,0.4l-0.7,0.4l-0.7,0.4l-0.7,0.4l-0.7,0.4l-0.7,0.4l-0.7,0.4l-0.7,0.4l-0.7,0.4l-0.7,0.4l-0.7,0.4
		l-0.7,0.4l-0.7,0.4l-0.7,0.4l-0.7,0.4l-0.7,0.4l-0.7,0.4l-0.7,0.4l-0.7,0.4l-0.7,0.5l-0.7,0.5l-0.7,0.5l-0.7,0.5l-0.7,0.5l-0.7,0.5
		l-0.7,0.5l-0.7,0.5l-0.7,0.5l-0.7,0.5l-0.7,0.5l-0.7,0.5l-0.7,0.5l-0.7,0.5l-0.7,0.5l-0.7,0.5l-0.7,0.5l-0.7,0.5l-0.7,0.5l-0.7,0.5
		l-0.7,0.5l-0.7,0.5l-0.7,0.5l-0.7,0.5l-0.7,0.5l-0.7,0.5l-0.7,0.5l-0.6,0.5l-0.7,0.5l-0.6,0.5l-0.6,0.5l-0.6,0.5l-0.6,0.5l-0.6,0.5
		l-0.6,0.6l-0.6,0.5l-0.6,0.6l-0.6,0.6l-0.6,0.6l-0.6,0.6l-0.6,0.6l-0.6,0.6l-0.6,0.6l-0.6,0.6l-0.6,0.6l-0.6,0.6l-0.6,0.6l-0.6,0.6
		l-0.6,0.6l-0.6,0.6l-0.6,0.6l-0.6,0.6l-0.6,0.6l-0.6,0.6l-0.6,0.6l-0.6,0.6l-0.6,0.6l-0.6,0.6l-0.6,0.6l-0.6,0.6l-0.6,0.6l-0.5,0.6
		l-0.5,0.6l-0.5,0.6l-0.5,0.6l-0.5,0.6l-0.5,0.6l-0.5,0.6l-0.5,0.6l-0.5,0.6l-0.5,0.6l-0.5,0.6l-0.5,0.6l-0.5,0.7l-0.5,0.7l-0.5,0.7
		l-0.5,0.7l-0.5,0.7l-0.5,0.7l-0.4,0.6l-0.4,0.6l-0.4,0.6l-0.4,0.6l-0.4,0.6l-0.4,0.6l-0.4,0.6l-0.4,0.6l-0.4,0.6l-0.4,0.6l-0.4,0.6
		l-0.4,0.6l-0.4,0.6l-0.4,0.7l-0.4,0.6l-0.4,0.7l-0.4,0.7l-0.4,0.7l-0.4,0.7l-0.4,0.7l-0.4,0.7l-0.4,0.7l-0.4,0.7l-0.4,0.7l-0.4,0.7
		l-0.4,0.7l-0.4,0.7l-0.4,0.7l-0.4,0.7l-0.4,0.7l-0.4,0.7l-0.4,0.7l-0.4,0.7l-0.4,0.7l-0.4,0.7l-0.3,0.7l-0.3,0.7l-0.3,0.7l-0.3,0.7
		l-0.3,0.7l-0.3,0.7l-0.3,0.7L823,186l-0.3,0.7l-0.3,0.7l-0.3,0.7l-0.3,0.7l-0.3,0.7l-0.3,0.7l-0.3,0.7l-0.3,0.7l-0.3,0.7l-0.3,0.7
		l-0.3,0.7l-0.3,0.7l-0.3,0.8l-0.3,0.7l-0.3,0.7l-0.3,0.8l-0.3,0.8l-0.3,0.8l-0.3,0.8l-0.3,0.8l-0.3,0.8l-0.3,0.8l-0.3,0.8l-0.3,0.8
		l-0.3,0.8l-0.3,0.8l-0.3,0.8l-0.3,0.8l-0.3,0.8l-0.3,0.8l-0.3,0.8l-0.3,0.8l-0.3,0.8l-0.2,0.8l-0.2,0.8l-0.2,0.8l-0.2,0.8l-0.2,0.8
		l-0.2,0.8l-0.2,0.8l-0.2,0.8l-0.2,0.8l-0.2,0.8l-0.2,0.8l-0.2,0.8l-0.2,0.8l-0.2,0.8l-0.2,0.8l-0.2,0.8l-0.2,0.8l-0.2,0.8l-0.2,0.8
		l-0.2,0.8l-0.2,0.8l-0.2,0.8l-0.2,0.8l-0.2,0.8l-0.2,0.8l-0.2,0.8l-0.2,0.8l-0.2,0.8l-0.2,0.8l-0.2,0.8l-0.2,0.8l-0.2,0.8l-0.2,0.8
		l-0.2,0.8l-0.2,0.8l-0.2,0.8l-0.2,0.8l-0.2,0.8l-0.2,0.8l-0.2,0.8l-0.2,0.8l-0.2,0.8l-0.2,0.8l-0.2,0.8l-0.2,0.8l-0.2,0.8L804,247
		l-0.1,0.8l-0.2,0.7l-0.1,0.8l-0.1,0.7l-0.1,0.7l-0.2,1.1l-0.2,1.1l-0.2,1.1l-0.2,1l-0.2,1l-0.2,1l-0.2,1l-0.2,1l-0.2,1l-0.2,1
		l-0.1,1l-0.1,1l-0.1,1l-0.1,1l-0.1,1l-0.1,1l-0.1,1l-0.1,1l-0.1,1l-0.1,1l-0.1,1l-0.1,1l-0.1,1l-0.1,0.9l-0.1,0.9l-0.1,0.9
		l-0.1,0.9l-0.1,0.9l-0.1,0.9l-0.1,0.9l-0.1,0.9l0,0.9l0,0.9l0,0.9l0,0.9l0,0.9l0,0.9l0,0.9l0,0.9l0,0.9l0,0.9l0,0.9v0.9v0.9v0.9
		l0,0.9l0,0.9l0,0.9l0,0.9l0,0.9l0,0.9l0,0.9l0,0.9l0,0.9l0,0.9l0,0.8l0,0.9l0,0.8l0.1,0.8l0,0.8l0.1,0.8l0.1,0.8l0.1,0.8l0.1,0.8
		l0.1,0.8l0.1,0.8l0.1,0.8l0.1,0.8l0.1,0.8l0.1,0.8l0.1,0.8l0.1,0.8l0.1,0.8l0.1,0.8l0.1,0.8l0.1,0.8l0.1,0.8l0.1,0.8l0.1,0.8
		l0.1,0.8l0.1,0.8l0.1,0.8l0.1,0.8l0.1,0.8l0.1,0.8l0.1,0.8l0.1,0.8l0.1,0.8l0.1,0.8l0.1,0.8l0.1,0.8l0.1,0.8l0.1,0.8l0.1,0.8
		l0.1,0.8l0.1,0.8l0.1,0.8l0.1,0.8l0.3,1.7l0.3,1.7l0.3,1.7l0.3,1.7l0.3,1.7l0.3,1.7l0.3,1.7l0.3,1.7l0.3,1.7l0.6,3.5l0.7,3.5
		l0.3,1.8l0.3,1.8l0.3,1.8l0.3,1.8l0.3,1.8l0.3,1.9l0.3,1.9l0.3,1.9l0.3,1.9l0.2,1l0.2,1l0.2,1l0.2,1l0.2,1l0.2,1l0.2,1l0.2,1l0.2,1
		l0.2,1l0.2,1l0.2,1l0.2,1l0.1,1l0.1,1l0.2,1l0.1,1l0.1,1l0.1,1l0.1,1.1l0.1,1.1l0.1,1.1l0.1,1.1l0.1,1.1l0.1,1.1l0.1,1.1l0.1,1.1
		l0.1,1.1l0.1,1.1l0.1,1.1l0.1,1.1l0.1,1.1l0.1,1.1l0.1,1.1l0.1,1.1l0.1,1.1l0.1,1.1l0.1,1.2l0.1,1.2l0.1,1.2l0.1,1.2l0.1,1.2
		l0.1,1.2l0.1,1.2l0.1,1.2l0.1,1.2l0.1,1.2l0.1,1.2l0.1,1.2l0.1,1.2l0.1,1.2l0.1,1.3l0.1,1.3l0.1,1.3l0.1,1.3l0.1,1.3l0.1,1.3l0,1.3
		l0,1.3l0,1.3l0,1.3l0,1.3l0,1.3l0,1.3l0,1.3l0,1.3l0,1.4l0,1.4l0,1.4l0,1.4l0,1.4v1.4l0,1.4l0,1.4l0,1.4l0,1.4l0,1.4l0,1.5l0,1.5
		l0,1.5l0,1.5l0,1.5l0,1.5l0,1.5l0,1.5l-0.1,1.5l-0.1,1.5l-0.1,1.5l-0.1,1.6l-0.1,1.6l-0.1,1.6l-0.1,1.6l-0.1,1.6l-0.1,1.6l-0.1,1.6
		l-0.1,1.6l-0.1,1.6l-0.1,1.6l-0.1,1.7l-0.1,1.7l-0.1,1.7l-0.1,1.7l-0.1,1.7l-0.1,1.7l-0.2,1.7l-0.2,1.7l-0.2,1.7l-0.2,1.7l-0.2,1.8
		l-0.2,1.8l-0.2,1.8l-0.2,1.8l-0.2,1.8l-0.2,1.8l-0.1,0.5l-0.1,0.5l-0.1,0.5l0,0.5l0,0.5l0,0.5l0,0.5l0,0.5l0,0.5l0,0.5l0,0.5l0,0.5
		l0,0.5l0,0.5l0,0.5l0,0.6l0,0.5l0,0.5l0,0.5l0,0.6l0,0.5v0.6v0.5l0,0.6l0,0.6l0,0.6l0,0.6l0,0.6l0,0.6l0,0.6l0,0.6l0,0.6l0,0.6
		l0,0.6l0,0.6l0,0.6l0,0.6l0,0.6l0,0.6l0,0.6l0,0.6l0,0.6l0,0.6l0,0.6l0.1,0.6l0.1,0.6l0.1,0.6l0.1,0.6l0.1,0.6l0.1,0.6l0.1,0.6
		l0.1,0.6l0.1,0.6l0.1,0.6l0.1,0.6l0.1,0.6l0.1,0.6l0.1,0.6l0.1,0.6l0.1,0.6l0.1,0.6l0.1,0.6l0.1,0.6l0.1,0.6l0.1,0.6l0.1,0.5
		l0.1,0.6l0.1,0.5l0.1,0.6l0.1,0.5l0.1,0.5l0.1,0.5l0.1,0.5l0.1,0.5l0.1,0.5l0.1,0.5l0.1,0.5l0.1,0.5l0.1,0.5l0.1,0.5l0.1,0.5
		l0.1,0.5l0.1,0.5l0.1,0.5l0.1,0.5l0.1,0.5l0.1,0.5l0.1,0.5l0.1,0.5l0.1,0.5l0.1,0.5l0.1,0.5l0.1,0.5l0.1,0.5l0.1,0.5l0.1,0.5
		l0.1,0.5l0.1,0.5l0.1,0.5l0.1,0.5l0.1,0.5l0.1,0.5l0.3,1l0.3,1l0.3,1l0.3,1l0.3,1l0.3,1l0.3,1l0.3,1l0.3,1l0.3,1l0.3,1l0.3,0.9
		l0.3,0.9l0.3,0.9l0.3,0.9l0.3,0.9l0.3,0.9l0.3,0.9l0.3,0.9l0.3,0.9l0.3,0.9l0.3,0.9l0.3,0.8l0.3,0.8l0.3,0.8l0.3,0.8l0.3,0.8
		l0.3,0.8l0.3,0.8l0.3,0.8l0.3,0.7l0.3,0.7l0.3,0.7l0.3,0.7l0.3,0.7l0.3,0.7l0.3,0.7l0.3,0.7l0.3,0.7l0.3,0.6l0.3,0.6l0.3,0.6
		l0.2,0.6l0.2,0.6l0.2,0.6l0.2,0.6l0.2,0.5l0.2,0.5l0.2,0.5l0.2,0.5l0.2,0.5l0.4,0.9l0.4,0.8l0.4,0.8l0.3,0.7l0.3,0.6l0.3,0.6
		l0.2,0.5l0.2,0.4l0.2,0.3l0.2,0.4l0.1,0.2l0.2,0.4l0.2,0.4l0.2,0.4l0.2,0.4l0.2,0.4l0.2,0.4l0.2,0.4l0.2,0.4l0.2,0.4l0.2,0.4
		l0.2,0.4l0.2,0.4l0.2,0.4l0.2,0.4l0.2,0.4l0.2,0.3l0.2,0.4l0.2,0.3l0.2,0.3l0.2,0.3l0.2,0.3l0.2,0.3l0.2,0.3l0.2,0.3l0.2,0.3
		l0.2,0.3l0.2,0.3l0.2,0.3l0.2,0.3l0.2,0.3l0.2,0.3l0.2,0.3l0.2,0.3l0.2,0.3l0.2,0.3l0.2,0.3l0.2,0.3l0.2,0.3l0.2,0.3l0.2,0.3
		l0.2,0.3l0.2,0.3l0.2,0.3l0.2,0.3l0.2,0.3l0.2,0.3l0.2,0.3l0.2,0.3l0.2,0.3l0.2,0.3l0.2,0.3l0.2,0.3l0.2,0.3l0.2,0.3l0.2,0.3
		l0.2,0.3l0.2,0.3l0.2,0.3l0.2,0.3l0.2,0.3l0.2,0.3l0.2,0.3l0.2,0.3l0.2,0.3l0.2,0.3l0.3,0.3l0.2,0.3l0.2,0.3l0.2,0.3l0.3,0.3
		l0.2,0.3l0.3,0.3l0.3,0.3l0.3,0.3l0.3,0.3l0.3,0.3l0.3,0.3l0.3,0.3l0.3,0.3l0.3,0.3l0.3,0.3l0.3,0.3l0.3,0.3l0.3,0.3l0.3,0.3
		l0.3,0.3l0.3,0.3l0.3,0.3l0.3,0.3l0.3,0.3l0.3,0.3l0.3,0.3l0.3,0.3l0.3,0.3l0.3,0.3l0.3,0.3l0.3,0.3l0.3,0.3l0.3,0.3l0.3,0.3
		l0.6,0.5l0.6,0.5l0.6,0.5l0.6,0.5l0.6,0.5l0.6,0.5l0.6,0.5l0.6,0.5l0.6,0.5l0.6,0.5l0.6,0.5l0.6,0.5l0.6,0.5l0.6,0.5l0.6,0.5
		l0.6,0.5l0.6,0.5l0.6,0.5l0.6,0.5l0.6,0.5l0.6,0.5l0.6,0.5l0.6,0.5l0.6,0.5l0.6,0.4l0.6,0.4l0.6,0.4l0.6,0.4l0.6,0.4l0.6,0.4
		l0.6,0.4l0.6,0.4l0.6,0.4l0.6,0.4l0.6,0.4l0.6,0.4l0.6,0.4l0.6,0.4l0.6,0.4l0.6,0.4l0.6,0.4l0.6,0.4l0.6,0.4l0.6,0.4l0.6,0.4
		l0.7,0.4l0.6,0.4l0.7,0.4l0.7,0.4l0.7,0.4l0.7,0.4l0.7,0.4l0.7,0.4l0.7,0.4l0.7,0.4l0.7,0.4l0.7,0.3l0.7,0.3l0.7,0.3l0.7,0.3
		l0.7,0.3l0.7,0.3l0.7,0.3l0.7,0.3l0.7,0.3l0.7,0.3l0.7,0.3l0.7,0.3l0.7,0.3l0.7,0.3l0.7,0.3l0.7,0.3l0.7,0.3l0.7,0.3l0.7,0.3
		l0.7,0.3l0.7,0.3l0.7,0.3l0.7,0.3l0.7,0.3l0.7,0.3l0.7,0.3l0.6,0.3l0.7,0.3l0.7,0.3l0.6,0.3l0.6,0.3l0.6,0.3l0.6,0.2l0.6,0.3
		l0.6,0.2l0.6,0.2l0.6,0.2l0.6,0.2l0.6,0.2l0.6,0.2l0.6,0.2l0.6,0.2l0.6,0.2l0.6,0.2l0.6,0.2l0.6,0.2l0.6,0.2l0.6,0.2l0.6,0.2
		l0.6,0.2l0.6,0.2l0.6,0.2l0.6,0.2l0.6,0.2l0.6,0.2l0.6,0.2l0.6,0.2l0.6,0.2l0.6,0.2l0.6,0.2l0.6,0.2l0.6,0.2l0.6,0.2l0.6,0.2
		l0.6,0.2l0.6,0.2l0.6,0.2l0.6,0.2l0.6,0.2l0.6,0.2l0.6,0.2l0.6,0.2l0.6,0.2l0.6,0.2l0.6,0.2l0.5,0.2l0.5,0.1l0.5,0.1l0.5,0.1
		l0.5,0.1l0.5,0.1l0.5,0.1l1,0.3l1,0.3l1,0.2l1,0.2l1,0.2l1,0.2l0.9,0.2l0.9,0.2l0.9,0.2l0.9,0.2l0.9,0.2l0.9,0.2l0.8,0.2l0.8,0.2
		l0.8,0.2l0.8,0.1l0.8,0.1l0.7,0.1l0.7,0.1l0.7,0.1l0.7,0.1l0.6,0.1l0.6,0.1l0.6,0.1l0.6,0.1l0.5,0.1l0.5,0.1l0.5,0.1l0.5,0.1
		l0.4,0.1l0.4,0l0.4,0l0.4,0l0.3,0l1,0.1l1,0.1l1,0.1l1,0.1l1,0.1l1,0.1l1,0.1l1,0.1l1,0.1l1,0.1l1,0.1l1,0.1l1,0.1l1,0.1l1,0.1l1,0
		l1,0l1,0l1,0l1,0l1,0l1,0l1,0l1,0l1,0l1,0l1,0l1,0l1,0h1l1,0l1,0l1,0l1,0l1,0l1,0l1,0l1,0l1,0l1,0l1,0l1,0l1,0l1,0l1,0l1-0.1l1-0.1
		l1-0.1l1-0.1l1-0.1l1-0.1l1-0.1l1-0.1l1-0.1l1-0.1l1-0.1l1-0.1l0.9-0.1l1-0.1l0.9-0.1l0.9-0.1l0.9-0.1l0.9-0.1l0.9-0.1l0.9-0.1
		l0.9-0.1l0.9-0.1l0.9-0.1l0.9-0.1l0.9-0.1l0.9-0.1l0.9-0.1l0.9-0.1l0.9-0.1l0.9-0.1l0.9-0.1l0.9-0.1l0.9-0.2l0.9-0.2l0.9-0.2
		l0.9-0.2l0.9-0.2l0.9-0.2l0.9-0.2l0.9-0.2l0.9-0.2l0.9-0.2l0.9-0.2l0.9-0.2l0.9-0.2l0.9-0.2l0.9-0.2l0.9-0.2l0.9-0.2l0.9-0.2
		l0.9-0.2l0.9-0.2l0.9-0.2l0.9-0.2l0.9-0.2l0.9-0.2l0.9-0.2l0.9-0.2l0.8-0.2l0.8-0.2l0.8-0.2l0.8-0.2l0.8-0.2l0.8-0.2l0.8-0.2
		l0.8-0.2l0.8-0.2l0.8-0.2l0.8-0.2l0.8-0.2l0.8-0.3l0.8-0.3l0.8-0.3l0.8-0.3l0.8-0.3l0.8-0.3l0.8-0.3l0.8-0.3l0.8-0.3l0.8-0.3
		l0.8-0.3l0.8-0.3l0.8-0.3l0.8-0.3l0.8-0.3l0.8-0.3l0.8-0.3l0.8-0.3l0.8-0.3l0.8-0.3l0.7-0.3l0.7-0.3l0.7-0.3l0.7-0.3l0.7-0.3
		l0.7-0.3l0.7-0.3l0.7-0.3l0.7-0.3l0.7-0.3l0.7-0.3l0.7-0.3l0.7-0.3l0.7-0.3l0.7-0.3l0.7-0.3l0.7-0.3l0.7-0.3l0.7-0.3l0.7-0.3
		l0.7-0.3l0.7-0.3l0.7-0.3l0.7-0.3l0.7-0.3l0.7-0.4l0.7-0.3l0.7-0.4l0.7-0.4l0.6-0.4l0.6-0.4l0.6-0.4l0.6-0.4l0.6-0.4l0.6-0.4
		l0.6-0.4l0.6-0.4l0.6-0.4l0.6-0.4l0.6-0.4l0.6-0.4l0.6-0.4l0.6-0.4l0.6-0.4l0.6-0.4l0.6-0.4l0.6-0.4l0.6-0.4l0.6-0.4l0.6-0.4
		l0.6-0.4l0.6-0.4l0.5-0.4l0.5-0.4l0.5-0.4l0.5-0.4l0.5-0.4l0.5-0.4l0.5-0.4l0.5-0.4l0.5-0.4l0.5-0.4l0.5-0.4l0.5-0.4l0.5-0.4
		l0.5-0.4l0.5-0.4l0.5-0.4l0.5-0.4l0.5-0.4l0.5-0.4l0.5-0.4l0.5-0.4l0.5-0.4l0.4-0.4l0.4-0.4l0.4-0.4l0.4-0.4l0.4-0.4l0.4-0.4
		l0.4-0.4l0.4-0.4l0.4-0.4l0.4-0.4l0.4-0.4l0.4-0.4l0.4-0.4l0.4-0.4l0.4-0.4l0.4-0.4l0.4-0.4l0.4-0.4l0.4-0.4l0.4-0.4l0.4-0.4
		l0.3-0.4l0.3-0.4l0.3-0.4l0.3-0.4l0.3-0.4l0.3-0.4l0.3-0.4l0.3-0.4l0.3-0.4l0.1-0.2l0.2-0.2l0.1-0.2l0.1-0.2l0.1-0.2l0.1-0.2
		l0.1-0.2l0.1-0.2l0.1-0.2l0.1-0.2l0.1-0.2l0.1-0.2l0.1-0.2l0.1-0.2l0.1-0.2l0.1-0.2l0.1-0.2l0.1-0.2l0.1-0.2l0.1-0.2l0.1-0.2
		l0.1-0.2l0.1-0.2l0.1-0.2l0.1-0.2l0.1-0.2l0.1-0.2l0.1-0.2l0.1-0.2l0.1-0.2l0.1-0.2l0.1-0.2l0.1-0.2l0.1-0.2l0.3-0.6l0.3-0.6
		l0.3-0.6l0.3-0.6l0.3-0.6l0.3-0.6l0.3-0.6l0.3-0.6l0.3-0.6l0.3-0.6l0.3-0.6l0.3-0.6l0.3-0.6l0.3-0.6l0.3-0.6l0.2-0.6l0.2-0.6
		l0.2-0.6l0.2-0.6l0.2-0.6l0.2-0.6l0.2-0.6l0.2-0.6l0.2-0.6l0.2-0.6l0.2-0.6l0.2-0.6l0.2-0.6l0.2-0.6l0.2-0.6l0.2-0.6l0.2-0.6
		l0.2-0.6l0.2-0.6l0.2-0.6l0.2-0.6l0.2-0.6l0.2-0.6l0.2-0.6l0.2-0.6l0.2-0.6l0.2-0.6l0.2-0.6l0.2-0.6l0.2-0.6l0.2-0.6l0.2-0.6
		l0.2-0.6l0.2-0.6l0.2-0.6l0.2-0.6l0.2-0.6l0.2-0.6l0.2-0.6l0.2-0.6l0.2-0.6l0.2-0.6l0.2-0.6l0.2-0.6l0.2-0.6l0.2-0.6l0.2-0.6
		l0.2-0.6l0.2-0.6l0.2-0.6l0.2-0.6l0.2-0.6l0.2-0.6l0.2-0.6l0.2-0.6l0.2-0.6l0.1-0.6l0.2-0.6l0.1-0.6l0.1-0.6l0.1-0.6l0.1-0.6
		l0.1-0.6l0.1-0.6l0.1-0.6l0.1-0.6l0.1-0.6l0.1-0.6l0.1-0.6l0.1-0.6l0.1-0.6l0.1-0.6l0.1-0.6l0.1-0.6l0.1-0.6l0.1-0.6l0.1-0.6
		l0.1-0.6l0.1-0.6l0.1-0.6l0.1-0.6l0.1-0.6l0.1-0.6l0.1-0.6l0.1-0.6l0.1-0.6l0.1-0.6l0.1-0.6l0.1-0.6l0.1-0.6l0.1-0.6l0.1-0.6
		l0.1-0.6l0.1-0.6l0.1-0.6l0.1-0.6l0.1-0.6l0.1-0.6l0.1-0.6l0.1-0.6l0.1-0.6l0.1-0.6l0.1-0.6l0.1-0.6l0.1-0.6l0.1-0.6l0.1-0.6
		l0.1-0.6l0.1-0.6l0.1-0.6l0.1-0.6l0.1-0.6l0.1-0.6l0.1-0.6l0.1-0.6l0.1-0.6l0.1-0.6l0-0.6l0-0.6l0-0.6l0-0.6l0-0.6l0-0.6l0-0.6
		l0-0.6l0-0.6l0-0.6l0-0.6l0-0.6l0-0.6l0-0.6l0-0.6l0-0.6l0-0.6l0-0.6l0-0.7l0-0.6l0-0.7l0-0.7l0-0.7l0-0.7l0-0.7l0-0.7l0-0.7l0-0.7
		l0-0.7l0-0.7l0-0.7v-0.7l0-0.7v-0.7v-0.7v-0.7v-0.7v-0.7l0-0.7l0-0.7l0-0.7l0-0.7l0-0.7l0-0.7l0-0.7l0-0.7l0-0.7l0-0.7l0-0.7l0-0.7
		l0-0.7l0-0.7l0-0.7l0-0.7l0-0.7l0-0.7l0-0.7l0-0.7l0-0.7l0-0.7l0-0.7l0-0.7l-0.1-1.5l-0.1-1.5l-0.1-1.5l-0.1-1.5l-0.1-1.5l-0.1-1.5
		l-0.1-1.5l-0.1-1.6l-0.1-1.6l-0.1-1.6l-0.1-1.6l-0.1-1.6l-0.1-1.6l-0.1-1.6l-0.2-1.6l-0.2-1.6l-0.2-1.7l-0.2-1.7l-0.2-1.7l-0.2-1.7
		l-0.2-1.7l-0.2-1.7l-0.2-1.7l-0.2-1.7l-0.2-1.8l-0.2-1.8l-0.2-1.8l-0.2-1.8l-0.2-1.8l-0.2-1.8l-0.2-1.9l-0.1-0.5l-0.1-0.5l0-0.5
		l-0.1-0.5l0-0.5l0-0.5l0-0.5l0-0.5l0-0.5l0-0.5l0-0.5l0-0.5l0-0.5l0-0.5l0-0.5l0-0.5l0-0.5l0-0.5v-0.5l0-0.5l0-0.5l0-0.5l0-0.5
		l0-0.5l0-0.5l0-0.5l0-0.5l0-0.5l0-0.5l0-0.5l0-0.5l0-0.5l0-0.5l0-0.5l0.1-0.5l0.1-0.5l0.1-0.5l0.1-0.5l0.1-0.5l0.1-0.5l0.1-0.5
		l0.1-0.5l0.1-0.5l0.1-0.5l0.1-0.5l0.1-0.5l0.1-0.6l0.1-0.5l0.1-0.6l0.1-0.6l0.1-0.5l0.1-0.6l0.1-0.6l0.1-0.6l0.1-0.6l0.1-0.6
		l0.1-0.6l0.1-0.6l0.1-0.6l0.1-0.6l0.1-0.6l0.1-0.6l0.1-0.6l0.1-0.6l0.1-0.6l0.1-0.6l0.1-0.6l0.1-0.6l0.1-0.6l0.1-0.6l0.1-0.6
		l0.1-0.6l0.1-0.6l0.1-0.6l0.1-0.6l0.1-0.6l0.1-0.6l0.1-0.6l0.1-0.6l0.2-0.6l0.1-0.6l0.2-0.6l0.2-0.6l0.2-0.6l0.3-1.1l0.3-1.1
		l0.3-1.1l0.3-1.1l0.3-1.1l0.3-1.1l0.3-1.1l0.3-1.1l0.3-1.1l0.4-1.1l0.4-1.1l0.4-1.1l0.4-1.1l0.4-1.1l0.4-1.2l0.4-1.1l0.4-1.1
		l0.4-1.1l0.4-1.1l0.4-1.1l0.4-1.1l0.4-1.1l0.4-1.1l0.4-1.1l0.4-1.1l0.4-1.1l0.8-2.3l0.8-2.3l0.8-2.3l0.8-2.3l1.6-4.5l0.8-2.2
		l0.8-2.2l0.8-2.2l0.4-1.1l0.4-1.1l0.4-1.1l0.4-1.1l0.4-1.1l0.4-1.1l0.4-1.1l0.4-1.1l0.4-1.1l0.3-1.1l0.3-1.1l0.3-1.1l0.3-1l0.3-1
		l0.3-1l0.3-1l0.3-1l0.3-1l0.3-1l0.3-1l0.3-1l0.3-1l0.3-1l0.3-1l0.1-0.5l0.1-0.5l0.1-0.5l0.1-0.5l0.1-0.5l0.1-0.5l0.1-0.5l0.1-0.5
		l0.1-0.5l0.1-0.5l0.1-0.5l0.1-0.5l0.1-0.5l0.1-0.5l0.1-0.5l0.1-0.5l0.1-0.4l0.1-0.4l0.1-0.4l0.1-0.4l0.1-0.4l0.1-0.4l0.1-0.4
		l0.1-0.4l0.1-0.4l0.1-0.4l0.1-0.4l0.1-0.4l0.1-0.4l0.1-0.4l0.1-0.4l0.1-0.4l0.1-0.4l0.1-0.4l0.1-0.4l0.1-0.4l0.1-1l0.1-1l0.1-1
		l0.1-1l0.1-1l0.1-1l0.1-1l0.1-1l0.1-1l0.1-1l0.1-1l0.1-1l0.1-1l0.1-1l0.1-1l0.1-1l0.1-1l0.1-1l0.1-1l0.1-1l0.1-1l0.1-1l0.1-1l0.1-1
		l0.1-1l0.1-1l0.1-1l0.1-1l0-1l0-1l0-1l0-1l0-1l0-1l0-1l0-1l0-1l0-1l0-1l0-1l0-1l0-1l0-1v-1v-1l0-1l0-1l0-1l0-1l0-1l0-1l0-1l0-1l0-1
		l0-1l0-1l0-1l0-1l0-1l-0.1-1l-0.1-1l-0.1-1l-0.1-1l-0.1-1l-0.1-1l-0.1-1l-0.1-1l-0.1-1l-0.1-1l-0.1-1l-0.1-1l-0.1-1l-0.1-1l-0.1-1
		l-0.1-1l-0.1-1l-0.1-1l-0.1-1l-0.1-1l-0.1-1l-0.1-1l-0.1-1l-0.1-1l-0.1-1l-0.1-1l-0.2-1l-0.2-1l-0.2-1l-0.2-1l-0.2-1l-0.2-1l-0.2-1
		l-0.2-1l-0.2-1l-0.2-1l-0.2-1l-0.2-1l-0.2-1l-0.2-1l-0.2-1l-0.2-1l-0.2-1l-0.2-1l-0.2-1l-0.2-1l-0.2-1l-0.2-1l-0.2-1l-0.2-1l-0.2-1
		l-0.3-1l-0.3-1l-0.3-1l-0.3-1l-0.3-1l-0.3-1l-0.3-1l-0.3-1l-0.3-1l-0.3-1l-0.3-1l-0.3-1l-0.3-1l-0.3-1l-0.3-1l-0.3-1l-0.3-1l-0.3-1
		l-0.2-0.5l-0.2-0.5l-0.2-0.5l-0.2-0.5l-0.2-0.5l-0.2-0.5l-0.2-0.5l-0.2-0.5l-0.2-0.5l-0.2-0.5l-0.2-0.5l-0.2-0.5l-0.2-0.5l-0.2-0.5
		l-0.2-0.5l-0.2-0.5l-0.2-0.5l-0.2-0.5l-0.2-0.5l-0.2-0.5l-0.2-0.5l-0.2-0.5l-0.2-0.5l-0.2-0.5l-0.2-0.5l-0.2-0.5l-0.2-0.5l-0.2-0.5
		l-0.2-0.5l-0.2-0.5l-0.2-0.5l-0.2-0.5l-0.2-0.5l-0.2-0.5l-0.2-0.5l-0.2-0.5l-0.2-0.5l-0.2-0.5l-0.2-0.4l-0.2-0.5l-0.2-0.4l-0.2-0.5
		l-0.2-0.4l-0.2-0.5l-0.2-0.4l-0.2-0.4l-0.2-0.5l-0.2-0.4l-0.2-0.4l-0.2-0.4l-0.2-0.4l-0.2-0.4l-0.2-0.4l-0.2-0.4l-0.2-0.4l-0.2-0.4
		l-0.2-0.4l-0.2-0.4l-0.2-0.4l-0.2-0.4l-0.2-0.4l-0.2-0.4l-0.2-0.4l-0.2-0.4l-0.2-0.4l-0.2-0.4l-0.2-0.4l-0.2-0.4l-0.2-0.4l-0.2-0.4
		l-0.2-0.4l-0.2-0.4l-0.2-0.4l-0.3-0.4l-0.2-0.4l-0.3-0.4l-0.2-0.4l-0.3-0.4l-0.3-0.4l-0.3-0.4l-0.3-0.4l-0.3-0.4l-0.3-0.4l-0.3-0.4
		l-0.3-0.4l-0.3-0.4l-0.3-0.4l-0.3-0.4l-0.3-0.4l-0.3-0.4l-0.3-0.4l-0.3-0.4l-0.3-0.4l-0.3-0.4l-0.3-0.4l-0.3-0.4l-0.3-0.4l-0.3-0.4
		l-0.3-0.4l-0.3-0.4l-0.3-0.4l-0.3-0.4l-0.3-0.4l-0.3-0.4l-0.3-0.4l-0.3-0.4l-0.3-0.4l-0.3-0.4l-0.3-0.4l-0.3-0.4l-0.3-0.4l-0.3-0.4
		l-0.3-0.4l-0.3-0.4l-0.3-0.4l-0.3-0.4l-0.3-0.4l-0.3-0.4l-0.3-0.4l-0.3-0.4l-0.3-0.4l-0.3-0.4l-0.3-0.4l-0.3-0.4l-0.3-0.4l-0.3-0.4
		l-0.3-0.4l-0.3-0.4l-0.3-0.4l-0.3-0.4l-0.3-0.4l-0.3-0.4l-0.3-0.4l-0.3-0.4l-0.3-0.4l-0.3-0.4l-0.3-0.4l-0.3-0.4l-0.3-0.4l-0.3-0.4
		l-0.3-0.4l-0.3-0.4l-0.3-0.4l-0.3-0.4l-0.3-0.4l-0.3-0.4l-0.3-0.4l-0.3-0.4l-0.4-0.4l-0.3-0.4l-0.4-0.4l-0.4-0.4l-0.4-0.4l-0.4-0.4
		l-0.4-0.4l-0.4-0.4l-0.4-0.4l-0.4-0.4l-0.4-0.4l-0.4-0.4l-0.4-0.4l-0.4-0.4l-0.4-0.4l-0.4-0.4l-0.4-0.4l-0.4-0.4l-0.4-0.4l-0.4-0.4
		l-0.4-0.4l-0.4-0.4l-0.4-0.4l-0.4-0.4l-0.4-0.4l-0.4-0.4l-0.4-0.4l-0.4-0.4l-0.4-0.4l-0.4-0.3l-0.4-0.4l-0.4-0.4l-0.4-0.3l-0.4-0.3
		l-0.4-0.4l-0.4-0.3l-0.4-0.3l-0.4-0.3l-0.4-0.3l-0.4-0.3l-0.4-0.3l-0.4-0.3l-0.4-0.3l-0.4-0.3l-0.4-0.3l-0.4-0.3l-0.4-0.3l-0.4-0.3
		l-0.4-0.3l-0.4-0.3l-0.4-0.3l-0.4-0.3l-0.4-0.3l-0.4-0.3l-0.4-0.3l-0.4-0.3l-0.4-0.3l-0.4-0.3l-0.4-0.3l-0.4-0.3l-0.4-0.3l-0.4-0.3
		l-0.4-0.3l-0.4-0.3l-0.4-0.3l-0.4-0.3l-0.4-0.3l-0.4-0.3l-0.4-0.3l-0.4-0.3l-0.4-0.3l-0.4-0.3l-0.5-0.3l-0.4-0.3l-0.5-0.3l-0.5-0.3
		l-0.5-0.3l-0.5-0.3l-0.5-0.3l-0.5-0.3l-0.5-0.3l-0.5-0.3l-0.5-0.3l-0.5-0.3l-0.5-0.3l-0.5-0.3l-0.5-0.3l-0.5-0.3l-0.5-0.3l-0.5-0.3
		l-0.5-0.3l-0.5-0.3l-0.5-0.3l-0.5-0.3l-0.5-0.3l-0.5-0.3l-0.5-0.3l-0.5-0.3l-0.5-0.3l-0.5-0.3l-0.5-0.3l-0.5-0.3l-0.5-0.3l-0.5-0.3
		l-0.5-0.3l-0.5-0.3l-0.5-0.3l-0.5-0.3l-1.2-0.6l-1.2-0.6l-1.2-0.6l-1.2-0.6l-1.2-0.6l-1.2-0.6l-1.2-0.6l-1.2-0.6l-1.2-0.6l-1.2-0.6
		l-1.2-0.6l-1.2-0.6l-1.2-0.6l-1.2-0.6l-1.2-0.6l-1.2-0.6l-1.2-0.6l-1.2-0.6l-1.2-0.6l-1.2-0.6l-1.2-0.6l-1.2-0.6l-0.6-0.3l-0.6-0.3
		l-0.6-0.3l-0.6-0.3l-0.6-0.3l-0.6-0.3l-0.6-0.3l-0.6-0.3l-0.6-0.3l-0.6-0.3l-0.6-0.3l-0.6-0.3l-0.6-0.3l-0.6-0.3l-0.6-0.3l-0.6-0.3
		l-0.6-0.3l-0.6-0.3l-0.6-0.3l-0.6-0.3l-0.6-0.2l-0.6-0.3l-0.6-0.2l-0.6-0.2l-0.6-0.2l-0.6-0.2l-0.6-0.2l-0.6-0.2l-0.6-0.2l-0.6-0.2
		L1065,94l-0.6-0.2l-0.6-0.2l-0.6-0.2l-0.6-0.2l-0.6-0.2l-0.6-0.2l-0.6-0.2l-0.6-0.2l-0.6-0.2l-0.6-0.2l-0.6-0.2l-0.6-0.2l-0.6-0.2
		l-0.6-0.2l-0.6-0.2l-0.6-0.2l-0.6-0.2l-0.6-0.2l-0.6-0.2l-0.6-0.2l-0.6-0.2l-0.6-0.2l-0.6-0.2l-0.6-0.2l-0.6-0.2l-0.6-0.2l-0.6-0.2
		l-0.6-0.2l-0.6-0.2l-0.6-0.2l-0.6-0.2l-0.6-0.2l-0.6-0.2l-0.6-0.2l-0.6-0.2l-0.6-0.2l-0.6-0.2l-0.6-0.2l-0.6-0.2l-0.6-0.2l-0.6-0.2
		l-0.6-0.2l-0.6-0.1l-0.6-0.2l-0.6-0.1l-0.7-0.1l-0.6-0.1l-0.7-0.1l-0.7-0.1l-0.6-0.1l-0.7-0.1l-0.7-0.1l-0.7-0.1l-0.8-0.2l-0.8-0.2
		l-0.8-0.1l-0.8-0.1l-0.8-0.1l-0.8-0.1l-0.8-0.1l-0.8-0.1L1024,83l-0.8-0.1l-0.8-0.1l-0.8-0.1l-0.8-0.1l-0.8-0.1l-0.8-0.1l-0.8-0.1
		l-0.8-0.1l-0.8-0.1l-0.8-0.1l-0.8-0.1l-0.8-0.1l-0.8-0.1l-0.8-0.1l-0.8-0.1l-0.8-0.1l-0.8-0.1l-0.8,0l-0.8-0.1l-0.8,0l-0.8,0
		l-0.8,0l-0.8,0l-0.8,0l-0.8,0l-0.8,0l-0.8,0l-0.8,0l-0.8,0l-0.8,0h-0.8l-0.8,0L996.5,81.1L996.5,81.1z"/>
	<path class="st7" d="M1046,681.8c-153,35.6-179.7-53.6-185-73c-9.9-36.5-14.7-107.3-5.8-145c3.1-13.1,8.9-28,18.9-38.8
		c21.9-23.8,119.6-25.9,156.2-20.3c14.6,2.2,27.8,7.3,40.9,12.8C1116.7,436.8,1132.8,661.6,1046,681.8L1046,681.8z"/>
	<circle class="st7" cx="821.1" cy="291.2" r="6.4"/>
	<circle class="st7" cx="1137.9" cy="302.8" r="6.4"/>
	<path class="st1" d="M1256.6,446.6c0,0-38.1,43.2-72.4,37.9c-34.3-5.3-36.7-35.2-10.9-41.4c25.8-6.1,49.5-14.1,59.6-32.8
		C1243,391.5,1280.9,419.5,1256.6,446.6L1256.6,446.6z"/>
	<g>
		<path class="st4" d="M888.1,339.1c-57.8,42.2,2.2,80.4,41.4,53.5c29-20,78.8,24.9,99.9,2.1c21.2-22.7-6-46.8-6-46.8
			C981,310.3,934,305.5,888.1,339.1z"/>
		<path class="st8" d="M931.7,326.9c1.6,9.5,1,27,5.9,35.1c2.4,3.9,8.2,4.5,12,4.8c21.8,2.1,22.9-20.3,27.4-39.5"/>
		<path class="st4" d="M932.2,321.2l0.3,0l0.3,0l0.3,0.1l0.3,0.1l0.3,0.1l0.3,0.1l0.3,0.1l0.3,0.2l0.3,0.2l0.3,0.2l0.3,0.2l0.2,0.2
			l0.2,0.2l0.2,0.2l0.2,0.2l0.2,0.3l0.2,0.3l0.2,0.3l0.1,0.3l0.1,0.3l0.1,0.3l0.1,0.3l0.1,0.3l0.1,0.3l0,0.2l0,0.3l0.1,0.5l0.1,0.5
			l0.1,0.5l0.1,0.5l0.1,0.5l0.1,0.6l0.1,0.6l0.1,0.6l0.1,0.6l0.1,0.6l0,0.6l0.1,0.6l0,0.6l0.1,1.2l0.1,1.2l0.1,1.2l0.1,1.2l0.1,1.2
			l0.1,1.2l0,0.6l0,0.6l0.1,0.6l0.1,0.6l0.1,0.6l0.1,0.6l0.1,0.6l0.1,0.6l0.1,0.6l0.1,0.6l0.1,0.6l0.1,0.6l0.1,0.6l0.1,0.6l0.1,0.6
			l0.1,0.5l0,0.3l0,0.3l0,0.3l0,0.3l0,0.3l0,0.3l0,0.3l0,0.2l0.1,0.2l0,0.2l0.1,0.2l0.1,0.2l0,0.2l0.1,0.2l0.1,0.2l0.1,0.2l0.1,0.2
			l0.1,0.2l0.1,0.2l0.1,0.2l0.1,0.2l0.1,0.2l0.1,0.2l0.1,0.2l0.1,0.2l0.1,0.2l0.1,0.2l0.1,0.2l0.1,0.2l0.1,0.2l0.1,0.2l0.1,0.2
			l0.1,0.2l0.1,0.2l0.1,0.2l0.1,0.2l0.1,0.1l0.1,0.1l0.1,0.1l0.1,0.1l0.1,0.1l0.1,0.1l0.1,0.1l0.1,0.1l0,0l0,0l0,0l0,0l0,0l0,0l0,0
			l0,0l0,0h0l0,0l0,0l0,0l0,0l0,0l0,0l0,0l0,0l0,0l0,0l0,0l0,0l0,0l0,0l0,0l0,0l0,0l0,0l0,0l0.1,0l0.1,0l0.1,0l0.1,0l0.1,0l0.1,0
			l0.1,0l0.1,0l0.1,0l0.1,0l0.1,0l0.1,0l0.1,0l0.1,0l0.1,0l0.1,0l0.1,0l0.1,0l0.1,0l0.1,0l0.1,0l0.2,0l0.2,0l0.2,0l0.2,0l0.2,0
			l0.2,0l0.2,0l0.2,0l0.2,0l0.2,0l0.2,0l0.2,0l0.4,0.1l0.4,0l0.4,0l0.4,0l0.4,0l0.4,0l0.7,0.1l0.2,0l0.2,0l0.2,0l0.2,0l0.2,0l0.2,0
			l0.2,0l0.2,0l0.2,0h0.2l0.2,0h0.2l0.2,0h0.2l0.2,0l0.2,0l0.2,0l0.2,0l0.2,0l0.2,0l0.2,0l0.2,0l0.2,0l0.2,0l0.2,0l0.2,0l0.1,0
			l0.1,0l0.1,0l0.1,0l0.1,0l0.1,0l0.1,0l0.1,0l0.1,0l0.1,0l0.1,0l0.1,0l0.1,0l0.1,0l0.1,0l0.1,0l0.1,0l0.1,0l0.1,0l0.1,0l0.1,0
			l0.1,0l0.1,0l0.1,0l0.1,0l0.1,0l0.1,0l0.1-0.1l0.1,0l0.1-0.1l0.1-0.1l0.1-0.1l0.1-0.1l0.1-0.1l0.1-0.1l0.1-0.1l0.1-0.1l0.1-0.1
			l0.1-0.1l0.1-0.1l0.1-0.1l0.1-0.1l0.1-0.1l0.1-0.1l0.1-0.1l0.1-0.1l0.1-0.1l0.1-0.1l0.1-0.1l0.1-0.1l0.1-0.1l0.1-0.1l0.1-0.1
			l0.1-0.1l0.1-0.1l0.1-0.1l0.1-0.1l0.1-0.1l0.1-0.1l0.1-0.1l0.1-0.1l0.1-0.1l0.1-0.1l0.1-0.1l0.1-0.1l0.1-0.1l0.1-0.1l0.1-0.1
			l0.1-0.1l0.1-0.1l0.1-0.1l0.1-0.1l0.1-0.1l0.1-0.1l0.1-0.1l0.1-0.1l0.1-0.1l0.1-0.1l0.1-0.1l0.1-0.1l0.1-0.1l0.1-0.1l0.1-0.1
			l0.1-0.1l0.1-0.1l0.1-0.1l0.1-0.1l0.1-0.1l0.1-0.1l0.1-0.1l0.1-0.1l0.1-0.1l0.1-0.1l0.1-0.1l0.1-0.3l0.1-0.3l0.1-0.3l0.1-0.3
			l0.1-0.3l0.1-0.3l0.1-0.3l0.1-0.3l0.1-0.3l0.1-0.3l0.1-0.3l0.1-0.3l0.1-0.3l0.1-0.4l0.1-0.4l0.1-0.4l0.1-0.4l0.1-0.4l0.1-0.4
			l0.1-0.4l0.1-0.4l0.1-0.4l0.1-0.4l0.1-0.4l0.1-0.4l0.1-0.4l0.1-0.4l0.1-0.4l0.1-0.4l0.1-0.4l0.1-0.4l0.1-0.4l0.1-0.4l0.1-0.4
			l0.1-0.4l0.1-0.4l0.2-0.9l0.2-0.9l0.2-0.9l0.2-0.9l0.2-0.9l0.2-0.9l0.4-1.8l0.2-0.9l0.2-0.9l0.2-0.9l0.2-0.9l0.2-0.9l0.2-0.9
			l0.2-0.9l0.1-0.5l0.1-0.5l0.1-0.3l0.1-0.3l0.1-0.3l0.1-0.3l0.1-0.3l0.2-0.3l0.2-0.3l0.2-0.3l0.2-0.2l0.2-0.2l0.2-0.2l0.2-0.2
			l0.3-0.2l0.3-0.2l0.3-0.2l0.3-0.1l0.3-0.1l0.3-0.1l0.3-0.1l0.3-0.1l0.3-0.1l0.3-0.1l0.3,0l0.3,0l0.3,0l0.3,0l0.3,0l0.3,0.1
			l0.3,0.1l0.3,0.1l0.3,0.1l0.3,0.1l0.3,0.1l0.3,0.2l0.3,0.2l0.3,0.2l0.2,0.2l0.2,0.2l0.2,0.2l0.2,0.2l0.2,0.2l0.2,0.3l0.2,0.3
			l0.2,0.3l0.1,0.3l0.1,0.3l0.1,0.3l0.1,0.3l0.1,0.3l0.1,0.3l0,0.3l0,0.3l0,0.3l0,0.3l0,0.3l0,0.3l-0.1,0.3l-0.1,0.4l-0.1,0.4
			l-0.2,0.9l-0.2,0.9l-0.2,0.9l-0.2,0.9l-0.2,0.9l-0.2,0.9l-0.2,0.9l-0.4,1.8l-0.2,0.9l-0.2,0.9l-0.2,0.9l-0.2,0.9l-0.2,0.9
			l-0.2,0.9l-0.1,0.5l-0.1,0.5l-0.1,0.5l-0.1,0.5l-0.1,0.5l-0.1,0.5l-0.1,0.5l-0.1,0.5l-0.1,0.5l-0.1,0.4l-0.1,0.5l-0.1,0.4
			l-0.1,0.5l-0.1,0.4l-0.1,0.5l-0.1,0.4l-0.1,0.4l-0.1,0.4l-0.1,0.4l-0.1,0.4l-0.2,0.4l-0.2,0.4l-0.2,0.4l-0.2,0.4l-0.2,0.4
			l-0.2,0.4l-0.2,0.4l-0.2,0.4l-0.2,0.4l-0.2,0.4l-0.2,0.4l-0.2,0.4l-0.2,0.4l-0.2,0.4l-0.2,0.4l-0.2,0.4l-0.1,0.2l-0.1,0.2
			l-0.1,0.2l-0.1,0.2l-0.1,0.2l-0.1,0.2l-0.1,0.2l-0.1,0.2l-0.1,0.2l-0.1,0.2l-0.1,0.2l-0.1,0.2l-0.1,0.2l-0.1,0.2l-0.1,0.2
			l-0.1,0.2l-0.1,0.2l-0.1,0.2l-0.1,0.2l-0.1,0.2l-0.1,0.2l-0.1,0.2l-0.1,0.2l-0.1,0.2l-0.1,0.2l-0.1,0.2l-0.1,0.2l-0.2,0.2
			l-0.1,0.2l-0.2,0.2l-0.2,0.2l-0.2,0.2l-0.2,0.2l-0.2,0.2l-0.2,0.2l-0.2,0.2l-0.2,0.2l-0.2,0.2l-0.2,0.2l-0.2,0.2l-0.2,0.2
			l-0.2,0.2l-0.2,0.2l-0.2,0.2l-0.2,0.2l-0.2,0.2l-0.2,0.2l-0.2,0.1l-0.2,0.2l-0.2,0.1l-0.2,0.1l-0.2,0.1l-0.2,0.1l-0.2,0.1
			l-0.2,0.1l-0.2,0.1l-0.2,0.1l-0.2,0.1l-0.2,0.1l-0.2,0.1l-0.2,0.1l-0.2,0.1l-0.2,0.1l-0.2,0.1l-0.2,0.1l-0.2,0.1l-0.2,0.1
			l-0.2,0.1l-0.2,0.1l-0.2,0.1l-0.2,0.1L962,371l-0.2,0.1l-0.2,0.1l-0.2,0.1l-0.2,0.1l-0.2,0.1l-0.2,0.1l-0.2,0.1l-0.2,0.1l-0.2,0.1
			l-0.2,0.1l-0.3,0.1l-0.3,0.1l-0.3,0.1l-0.3,0.1l-0.3,0.1l-0.3,0.1l-0.3,0l-0.3,0.1l-0.3,0l-0.3,0l-0.3,0l-0.3,0l-0.3,0l-0.3,0
			l-0.3,0l-0.3,0l-0.3,0l-0.3,0l-0.3,0l-0.3,0l-0.3,0l-0.3,0l-0.3,0l-0.3,0l-0.3,0l-0.3,0h-0.3l-0.3,0h-0.3l-0.3,0l-0.3,0l-0.3,0
			l-0.3,0l-0.3,0l-0.3,0l-0.3,0l-0.3,0l-0.3,0l-0.8-0.1l-0.4,0l-0.4,0l-0.4-0.1l-0.4-0.1l-0.5-0.1l-0.5-0.1l-0.3,0l-0.2,0l-0.2,0
			l-0.3,0l-0.3,0l-0.3,0l-0.3-0.1l-0.3,0l-0.3-0.1l-0.3-0.1l-0.3-0.1l-0.3-0.1l-0.3-0.1l-0.3-0.1l-0.3-0.1l-0.3-0.1l-0.3-0.1
			l-0.3-0.1l-0.3-0.1l-0.3-0.1l-0.3-0.1l-0.3-0.1l-0.3-0.1l-0.3-0.1l-0.3-0.1l-0.3-0.1l-0.3-0.1l-0.3-0.2l-0.3-0.2l-0.3-0.2
			l-0.3-0.2l-0.3-0.2l-0.3-0.2l-0.2-0.1l-0.1-0.1l-0.1-0.1l-0.1-0.1l-0.1-0.1l-0.1-0.1l-0.1-0.1l-0.1-0.1l-0.1-0.1l-0.1-0.1
			l-0.1-0.1l-0.1-0.1l-0.1-0.1l-0.1-0.1l-0.1-0.1l-0.1-0.1l-0.1-0.1l-0.1-0.1l-0.1-0.1l-0.1-0.2l-0.1-0.1l-0.1-0.2l-0.1-0.2
			l-0.1-0.2l-0.1-0.2l-0.1-0.1l-0.1-0.2l-0.1-0.2l-0.1-0.2l-0.1-0.2l-0.2-0.3l-0.2-0.3l-0.2-0.3l-0.1-0.3l-0.1-0.3l-0.1-0.3
			l-0.1-0.3l-0.1-0.3l-0.1-0.3l-0.1-0.3l-0.1-0.3l-0.1-0.3l-0.1-0.3l-0.1-0.3l-0.1-0.3l-0.1-0.3l-0.1-0.3l-0.1-0.3l-0.1-0.3
			l-0.1-0.3l-0.1-0.3l-0.1-0.3l-0.1-0.3l-0.1-0.3l-0.1-0.3l-0.1-0.3l-0.1-0.3l-0.1-0.3l-0.1-0.3l-0.1-0.3l-0.1-0.3l-0.1-0.3
			l-0.1-0.3l-0.1-0.3l-0.1-0.3l-0.1-0.3l-0.1-0.3l-0.1-0.3l-0.1-0.3l-0.1-0.3l-0.1-0.3l-0.1-0.3l-0.1-0.3l0-0.3l-0.1-0.6l-0.1-0.6
			l-0.1-0.6l-0.1-0.6l-0.1-0.6l-0.1-0.6l-0.1-0.6l-0.1-0.6l-0.1-0.6l-0.1-0.6l-0.1-0.6l-0.1-0.6l-0.1-0.6l-0.1-0.6l-0.1-0.6
			l-0.1-0.6l-0.1-1.2l-0.1-1.2l-0.1-1.2l-0.1-1.2l-0.1-1.2l-0.1-1.1l0-0.5l0-0.5l0-0.5l0-0.5l-0.1-0.5l0-0.5l-0.1-0.5l-0.1-0.5
			l-0.1-0.5l-0.1-0.4l-0.1-0.4l-0.1-0.4l-0.1-0.4l0-0.2l0-0.2l0-0.3l0-0.3l0-0.3l0-0.3l0-0.3l0-0.3l0.1-0.3l0.1-0.3l0.1-0.3l0.1-0.3
			l0.1-0.3l0.1-0.3l0.2-0.3l0.2-0.3l0.2-0.3l0.2-0.2l0.2-0.2l0.2-0.2l0.2-0.2l0.3-0.2l0.3-0.2l0.3-0.2l0.3-0.2l0.3-0.1l0.3-0.1
			l0.3-0.1l0.3-0.1l0.3-0.1l0.3-0.1l0.3,0l0.3,0l0.3,0L932.2,321.2L932.2,321.2z"/>
		<path class="st4" d="M962.1,255.3c17.7,1.1,31.5,11.1,30.8,22.3c-0.7,11.2-15.6,19.5-33.3,18.4c-17.7-1.1-31.5-11.1-30.8-22.3
			C929.5,262.5,944.5,254.2,962.1,255.3L962.1,255.3z"/>
		<path class="st4" d="M959.3,284.1l0.3,0l0.2,0l0.3,0l0.2,0l0.2,0.1l0.2,0.1l0.2,0.1l0.2,0.1l0.2,0.1l0.2,0.1l0.2,0.1l0.2,0.1
			l0.2,0.1l0.2,0.2l0.2,0.2l0.2,0.2l0.2,0.2l0.2,0.2l0.2,0.2l0.2,0.2l0.2,0.2l0.1,0.2l0.1,0.2l0.1,0.2l0.1,0.2l0.1,0.2l0.1,0.2
			l0.1,0.2l0.1,0.2l0.1,0.2l0,0.3l0,0.2l0,0.3l0,0.3v0.3l0,0.5l0,0.5l0,0.5l0,0.5l0,0.5l0,0.5l0,0.5l0,0.5l0,0.5l0,0.5l0,0.5l0,0.5
			l0,0.5l0,0.5l0,0.5l0,0.5l0,0.5l0,0.5l-0.1,0.9l-0.1,0.9l-0.1,0.9l-0.1,0.9l-0.1,0.9l-0.1,0.9l-0.1,0.9l-0.1,0.9l-0.1,0.9
			l-0.2,1.8l-0.2,1.8l-0.1,0.9l-0.1,0.9l-0.1,0.9l-0.1,0.9l-0.1,0.9l-0.1,0.9l-0.1,0.9l-0.1,0.9l-0.1,0.9l0,0.4l0,0.4l0,0.3l0,0.3
			l0,0.2l-0.1,0.2l-0.1,0.2l-0.1,0.2l-0.1,0.2l-0.1,0.2l-0.1,0.2l-0.1,0.2l-0.1,0.2l-0.1,0.2l-0.2,0.2l-0.2,0.2l-0.2,0.2l-0.2,0.2
			l-0.2,0.2l-0.2,0.2l-0.2,0.2l-0.2,0.2l-0.2,0.1l-0.2,0.1l-0.2,0.1l-0.2,0.1l-0.2,0.1l-0.2,0.1l-0.2,0.1l-0.2,0.1l-0.2,0.1l-0.2,0
			l-0.3,0l-0.3,0l-0.3,0l-0.3,0l-0.3,0l-0.3,0l-0.3,0l-0.2,0l-0.3-0.1l-0.2-0.1l-0.2-0.1l-0.2-0.1l-0.2-0.1l-0.2-0.1l-0.2-0.1
			l-0.2-0.1l-0.2-0.1l-0.2-0.1l-0.2-0.2l-0.2-0.2l-0.2-0.2l-0.2-0.2l-0.2-0.2l-0.2-0.2l-0.2-0.2l-0.1-0.2l-0.1-0.2l-0.1-0.2
			l-0.1-0.2l-0.1-0.2l-0.1-0.2l-0.1-0.2l-0.1-0.2l-0.1-0.2l-0.1-0.2l0-0.3l0-0.3l0-0.3l0-0.3v-0.3l0-0.3l0-0.5l0-0.5l0.1-0.9
			l0.1-0.9l0.1-0.9l0.1-0.9l0.1-0.9l0.1-0.9l0.1-0.9l0.1-0.9l0.1-0.9l0.2-1.8l0.2-1.8l0.1-0.9l0.1-0.9l0.1-0.9l0.1-0.9l0.1-0.9
			l0.1-0.9l0.1-0.9l0.1-0.9l0.1-0.9l0-0.4l0-0.4l0-0.4l0-0.4l0-0.4l0-0.4l0-0.4l0-0.4l0-0.4l0-0.4l0-0.4l0-0.4l0-0.4l0-0.4l0-0.4
			l0-0.4l0-0.4l0-0.4l0-0.3l0-0.3l0-0.3l0-0.3l0.1-0.2l0.1-0.2l0.1-0.2l0.1-0.2l0.1-0.2l0.1-0.2l0.1-0.2l0.1-0.2l0.1-0.2l0.1-0.2
			l0.2-0.2l0.2-0.2l0.2-0.2l0.2-0.2l0.2-0.2l0.2-0.2l0.2-0.2l0.2-0.1l0.2-0.1l0.2-0.1l0.2-0.1l0.2-0.1l0.2-0.1l0.2-0.1l0.2-0.1
			l0.2-0.1l0.2-0.1l0.3,0l0.2,0l0.3,0h0.3L959.3,284.1L959.3,284.1z"/>
		<path class="st7" d="M912.4,114.7c5.7-4.1,12.1-5,14.2-2.1c2.1,3-0.8,8.7-6.5,12.8c-5.7,4.1-12.1,5-14.2,2.1
			C903.8,124.5,906.7,118.8,912.4,114.7L912.4,114.7z"/>
		<path class="st7" d="M1088.4,117.2c5.7,4.2,8.5,10,6.3,12.9c-2.2,2.9-8.5,1.9-14.2-2.2c-5.7-4.2-8.5-10-6.3-12.9
			S1082.7,113,1088.4,117.2L1088.4,117.2z"/>
		<path class="st9" d="M850,129c35.9-5.1,69.2,19.9,74.3,55.7c5.1,35.9-19.9,69.2-55.7,74.3c-35.9,5.1-69.2-19.9-74.3-55.7
			C789.2,167.4,814.2,134.1,850,129z"/>
		<path class="st4" d="M856.4,182.7c8.3-1.2,15.9,4.6,17.1,12.9c1.2,8.3-4.6,15.9-12.9,17.1c-8.3,1.2-16-4.6-17.1-12.9
			C842.4,191.5,848.1,183.8,856.4,182.7L856.4,182.7z"/>
		<path class="st10" d="M858,193.4c2.3-0.3,4.5,1.3,4.8,3.6c0.3,2.3-1.3,4.5-3.6,4.8c-2.3,0.3-4.5-1.3-4.8-3.6
			C854.1,195.9,855.7,193.7,858,193.4z"/>
		<path class="st9" d="M1081.4,148.2c35.9-5.1,69.2,19.9,74.3,55.7c5.1,35.9-19.9,69.2-55.7,74.3c-35.9,5.1-69.2-19.9-74.3-55.7
			C1020.6,186.6,1045.6,153.3,1081.4,148.2L1081.4,148.2z"/>
		<path class="st4" d="M1090.3,199.2c8-1.1,15.4,4.4,16.6,12.4c1.1,8-4.4,15.4-12.4,16.6s-15.4-4.4-16.6-12.4
			S1082.3,200.3,1090.3,199.2z"/>
		<path class="st10" d="M1091.5,209.3c2.2-0.3,4.3,1.2,4.7,3.5c0.3,2.2-1.2,4.3-3.5,4.7c-2.2,0.3-4.3-1.2-4.7-3.5
			C1087.7,211.7,1089.3,209.6,1091.5,209.3z"/>
	</g>
	<path class="st11" d="M705.5,906.4c-1.4-5-3.5-9.4-6.1-12.9c-2.7-3.5-5.8-6.1-9.4-8c-3.6-1.9-7.7-2.7-12.1-2.7
		c-5.7,0-10.5,1.1-14.8,3.5c-4.2,2.4-7.9,5.2-11.2,8.9l-1.6-7.4c-0.3-1.3-0.8-2-1.7-2.7c-0.9-0.6-2-0.9-3.3-0.9l-11.8,0h-11.9v9.2
		c0,2.7,1.3,4.2,3.9,4.9c0.2,0,0.5,0.2,0.9,0.2c0.5,0,1.3,0.3,2.4,0.5c1.1,0.2,2.8,0.5,4.7,0.8v75.9c-1.9,0.3-3.6,0.8-4.7,0.9
		c-1.1,0.2-1.9,0.3-2.4,0.3s-0.8,0.2-0.9,0.2c-2.7,0.6-3.9,2.4-3.9,5v9.1h43.2v-9.1c0-2.7-1.3-4.4-3.9-5c-0.2,0-0.5,0-0.9-0.2
		c-0.5-0.2-1.3-0.2-2.4-0.3c-1.1-0.2-2.7-0.6-4.7-1V958c2.5,2.5,5.5,4.4,8.6,5.8c3.1,1.4,6.9,2,11.5,2c5.3,0,10.2-0.9,14.4-3.1
		c4.2-2.2,7.8-5,10.8-8.8s5.3-8.2,6.9-13.3c1.6-5.2,2.5-10.8,2.5-16.8C707.7,917.2,707,911.6,705.5,906.4L705.5,906.4z M686.4,936.1
		c-0.9,3.5-2.4,6.3-3.9,8.5c-1.7,2.2-3.6,3.9-6,5c-2.4,1.1-5,1.6-8,1.6c-3,0-5.8-0.5-8.3-1.6c-2.5-1.1-5-3-7.2-5.7v-36.1
		c2.5-3.1,5.2-5.5,8-7.2c2.8-1.7,6.3-2.5,10.4-2.5c2.5,0,4.7,0.5,6.8,1.4c2,0.9,3.8,2.5,5.2,4.6c1.4,2,2.5,4.6,3.3,7.9
		c0.8,3.3,1.1,7.4,1.1,12.1C687.7,928.7,687.3,932.6,686.4,936.1L686.4,936.1z"/>
	<path class="st11" d="M785.3,950.7c-0.2,0-0.8-0.2-1.7-0.3c-0.9-0.2-2.5-0.5-4.2-0.8v-35.8c0-4.6-0.6-8.8-1.9-12.6
		c-1.3-3.8-3.5-7.1-6-9.9c-2.5-2.7-5.7-4.9-9.3-6.4c-3.8-1.6-8-2.4-12.7-2.4c-13,0-24.2,4.4-33.4,12.9l3.6,6.1
		c0.6,0.9,1.3,1.9,2.2,2.5c0.9,0.6,2.2,0.9,3.5,0.9c1.6,0,3-0.3,4.2-1.1c1.3-0.8,2.7-1.4,4.2-2.4c1.6-0.9,3.5-1.7,5.5-2.5
		c2-0.8,4.7-1.1,7.9-1.1c4.4,0,7.7,1.3,9.9,3.9c2.2,2.7,3.5,6.6,3.5,12.1v4.7c-9.1,0-17,0.8-23.1,2.4c-6.1,1.6-11,3.6-14.8,6
		c-3.8,2.4-6.4,5-8,8c-1.6,3-2.4,6.2-2.4,9.2c0,3.6,0.6,6.8,1.7,9.5c1.1,2.7,2.8,5,4.9,6.9s4.6,3.1,7.4,4.1c2.8,0.9,6,1.4,9.4,1.4
		c2.8,0,5.5-0.3,7.9-0.8c2.4-0.5,4.6-1.1,6.6-2c2-0.9,4.2-2,6.1-3.5c2-1.4,3.9-3,6-4.9l1.7,5.6c0.5,1.7,1.3,3,2.4,3.5
		c1.1,0.6,2.5,0.8,4.4,0.8h18.5v-9.2C789.2,952.9,788,951.3,785.3,950.7L785.3,950.7z M760.5,944c-1.4,1.4-2.8,2.7-4.2,3.8
		c-1.4,1.1-2.8,1.9-4.2,2.7c-1.4,0.8-3.1,1.4-4.9,1.7c-1.7,0.3-3.5,0.5-5.5,0.5c-3.3,0-5.8-0.8-7.9-2.2c-2-1.4-3-3.9-3-7.4
		c0-1.7,0.5-3.5,1.4-4.9c0.9-1.4,2.5-2.7,4.9-3.8c2.4-1.1,5.5-2.1,9.3-2.8c3.8-0.8,8.5-1.1,14.1-1.1V944z"/>
	<path class="st11" d="M885.2,950.7c-0.2,0-0.5-0.2-0.9-0.2s-1.3-0.3-2.4-0.5c-1.1-0.2-2.8-0.5-4.7-0.8v-35.7
		c0-4.6-0.5-8.6-1.7-12.4c-1.3-3.8-3-7.1-5.2-9.7c-2.4-2.7-5-4.9-8.5-6.3c-3.5-1.6-7.4-2.2-11.8-2.2c-2.7,0-5.2,0.3-7.5,0.8
		c-2.4,0.5-4.4,1.4-6.4,2.4c-2,0.9-4.1,2-5.8,3.4c-1.9,1.4-3.5,2.8-5,4.6l-1.4-6.3c-0.8-2.4-2.4-3.6-4.9-3.6l-11.9,0h-11.8v9.2
		c0,2.7,1.3,4.2,3.9,4.9c0.2,0,0.5,0,0.9,0.2c0.5,0,1.3,0.3,2.4,0.5c1.1,0.2,2.7,0.5,4.6,0.8v49.5c-1.9,0.3-3.5,0.6-4.6,0.8
		c-1.1,0.2-1.9,0.3-2.4,0.5c-0.5,0-0.8,0.2-0.9,0.2c-2.7,0.6-3.9,2.2-3.9,4.9v9.2h43v-9.2c0-2.7-1.3-4.2-3.9-4.9
		c-0.2,0-0.5,0-0.9-0.2c-0.5-0.2-1.3-0.3-2.4-0.5c-1.1-0.2-2.7-0.5-4.6-0.8v-42.7c2.7-2.7,5.3-4.6,8.3-6.1c3-1.6,6.1-2.4,9.4-2.4
		c4.6,0,8,1.4,10.2,4.1c2.2,2.7,3.5,6.6,3.5,11.5v51.2h31.2v-9.2C889.1,952.9,887.8,951.3,885.2,950.7L885.2,950.7L885.2,950.7z"/>
	<path class="st11" d="M934,950.7c-0.2,0-0.5-0.2-0.9-0.2s-1.3-0.3-2.4-0.5c-1.1-0.2-2.8-0.5-4.7-0.8v-65h-19.3h-11.9v9.2
		c0,2.7,1.3,4.2,3.9,4.9c0.2,0,0.5,0.2,0.9,0.2s1.3,0.3,2.4,0.5s2.8,0.5,4.7,0.8v49.5c-1.9,0.3-3.6,0.6-4.7,0.8
		c-1.1,0.2-1.9,0.3-2.4,0.5c-0.5,0-0.8,0.2-0.9,0.2c-2.7,0.6-3.9,2.2-3.9,4.9v9.2h43.2v-9.2C937.9,952.9,936.7,951.3,934,950.7
		L934,950.7L934,950.7z M929,860.7c0-1.7-0.5-3.3-1.1-4.9c-0.6-1.6-1.6-2.8-2.7-3.9c-1.1-1.1-2.4-1.9-3.9-2.5
		c-1.6-0.6-3.1-1.1-4.9-1.1c-1.7,0-3.3,0.5-4.9,1.1c-1.6,0.6-2.7,1.4-3.8,2.5c-1.1,1.1-2,2.4-2.7,3.9c-0.6,1.6-0.9,3.1-0.9,4.9
		c0,1.7,0.3,3.3,0.9,4.7c0.6,1.4,1.6,2.8,2.7,3.9c1.1,1.1,2.2,2,3.8,2.7c1.6,0.6,3.1,0.9,4.9,0.9c1.7,0,3.3-0.3,4.9-0.9
		c1.6-0.6,2.8-1.6,3.9-2.7c1.1-1.1,2-2.5,2.7-3.9C928.5,864,929,862.4,929,860.7z"/>
	<path class="st11" d="M1005.3,945.6c-0.8-1.3-2-1.7-3.6-1.7c-1.3,0-2.2,0.3-3.1,1.1c-0.9,0.8-2.2,1.6-3.5,2.5
		c-1.3,0.9-3,1.7-4.9,2.5c-1.9,0.8-4.4,1.1-7.5,1.1c-3.1,0-5.8-0.6-8.3-1.7c-2.5-1.3-4.6-3-6.3-5.2c-1.7-2.4-3-5.2-3.9-8.5
		c-0.9-3.3-1.4-7.2-1.4-11.5c0-4.1,0.5-7.7,1.3-11c0.8-3.3,2.2-6.1,3.9-8.5c1.7-2.4,3.8-3.9,6.3-5.2c2.5-1.3,5.5-1.9,9-1.9
		c2.7,0,6.3,0.5,10.4,1.6c0.6,6.3,1.1,10.1,1.3,11.3c0.5,1.9,1.6,3,3.6,3h8.9l0.2-24.8c-10.3-3.9-18.8-5.8-25.4-5.8
		c-6.3,0-11.9,1.1-16.8,3.1c-4.9,2-8.9,4.9-12.2,8.6c-3.3,3.8-5.8,8.2-7.5,13.2c-1.7,5-2.5,10.4-2.5,16.3c0,6.6,0.9,12.6,2.8,17.7
		c1.9,5.2,4.6,9.4,7.8,13c3.3,3.6,7.1,6.3,11.5,8.2c4.4,1.9,9,2.7,14,2.7c2.8,0,5.8-0.2,8.6-0.6c2.8-0.5,5.7-1.1,8.3-2
		c2.7-1.1,5.3-2.4,7.8-4.1c2.5-1.7,4.7-3.9,6.9-6.4L1005.3,945.6L1005.3,945.6z"/>
	<path class="st11" d="M1032.3,915.5c0-10.8,1.3-21.4,3.9-31.7c2.7-10.4,6.3-20.4,11.1-29.5c0.6-1.4,1.1-2.5,1.1-3.5
		c0-0.9-0.5-1.9-0.9-2.5c-0.5-0.6-1.1-1.1-1.9-1.6l-8.5-5.2c-3.9,6-7.4,11.9-10,17.9c-2.7,6-4.9,12.1-6.6,18.2
		c-1.7,6.1-3,12.4-3.8,18.7c-0.8,6.3-1.3,12.6-1.3,19.2c0,6.6,0.5,13,1.3,19.3c0.8,6.3,2,12.6,3.8,18.7c1.7,6.1,3.9,12.2,6.6,18.2
		c2.7,6,6.1,11.9,10,17.9l8.5-5.3c0.8-0.5,1.4-0.9,1.9-1.6c0.5-0.6,0.9-1.4,0.9-2.5c0-0.5-0.2-0.9-0.3-1.6c-0.2-0.6-0.3-1.3-0.6-1.9
		c-4.9-9.1-8.6-19-11.3-29.4C1033.6,937,1032.3,926.3,1032.3,915.5L1032.3,915.5L1032.3,915.5z"/>
	<path class="st11" d="M1089,883c-6,0-11.6,1.1-16.3,3.1c-4.7,2-8.8,4.9-12.1,8.5c-3.3,3.6-6,7.9-7.7,12.7
		c-1.7,4.9-2.7,9.9-2.7,15.4c0,7.1,0.9,13.3,3,18.7c2,5.3,4.9,9.9,8.5,13.5c3.6,3.6,7.7,6.4,12.6,8.3s9.9,2.7,15.5,2.7
		c2.8,0,5.8-0.2,8.8-0.6c3-0.5,6-1.1,8.9-2c2.8-0.9,5.6-2.4,8.3-4.1c2.7-1.7,5-3.9,7.2-6.4l-5.6-7.1c-0.5-0.6-0.8-0.9-1.4-1.3
		c-0.6-0.3-1.4-0.5-2.2-0.5c-1.3,0-2.4,0.3-3.6,1.1c-1.3,0.8-2.8,1.4-4.6,2.4c-1.7,0.9-3.6,1.7-6,2.5c-2.2,0.8-4.9,1.1-8,1.1
		c-6.4,0-11.5-1.9-15.4-5.8c-3.9-3.9-6.1-9.9-6.8-18.2h49.8c0.9,0,1.6,0,2.2-0.3c0.6-0.3,1.1-0.6,1.4-1.3c0.3-0.5,0.5-1.3,0.6-2.2
		c0.2-0.9,0.3-2.4,0.3-3.8c0-5.8-0.9-10.8-2.7-15.4c-1.7-4.6-4.1-8.3-7.2-11.5c-3.1-3.1-6.7-5.6-11-7.2S1094,883,1089,883L1089,883z
		 M1089.3,896.8c2.8,0,5.3,0.6,7.5,1.6c2.2,0.9,3.9,2.2,5.3,3.9c1.4,1.7,2.5,3.6,3.1,5.8c0.6,2.2,1.1,4.6,1.1,7.1H1070
		c0.9-5.8,3-10.4,6.1-13.5C1079.3,898.5,1083.7,896.8,1089.3,896.8z"/>
	<path class="st11" d="M1182.6,882.8c-4.9,0-9.1,1.4-13,4.2c-3.9,2.8-7.2,6.8-10,11.8l-1.3-9.7c-0.3-1.7-0.8-3-1.6-3.8
		c-0.8-0.8-2-1.1-4.1-1.1h-11.4h-11.8v9.3c0,2.7,1.3,4.2,3.9,4.9c1.3,0.2,1.1,0.2,7.9,1.4v49.5c-6.8,1.3-6.6,1.3-7.9,1.4
		c-2.7,0.6-3.9,2.2-3.9,4.9v9.2h43v-9.2c0-2.7-1.3-4.2-3.9-4.9c-1.3-0.2-1.1-0.2-7.9-1.4v-34.5c2-4.2,4.4-7.7,7.2-9.9
		c2.8-2.2,6.3-3.3,10.4-3.3c2.2,0,4.1,0.3,5.5,0.6c1.4,0.3,2.4,0.5,3.1,0.5c0.9,0,1.7-0.3,2.2-0.6c0.5-0.3,0.8-0.9,0.9-1.9l2.5-14.6
		C1189.8,883.6,1186.5,882.8,1182.6,882.8L1182.6,882.8z"/>
	<path class="st11" d="M1251,882.8c-4.9,0-9.1,1.4-13,4.2c-3.9,2.8-7.2,6.8-10,11.8l-1.3-9.7c-0.3-1.7-0.8-3-1.6-3.8
		c-0.8-0.8-2-1.1-4.1-1.1h-11.5h-11.8v9.3c0,2.7,1.3,4.2,3.9,4.9c1.3,0.2,1.1,0.2,7.9,1.4v49.5c-6.8,1.3-6.6,1.3-7.9,1.4
		c-2.7,0.6-3.9,2.2-3.9,4.9v9.2h43v-9.2c0-2.7-1.3-4.2-3.9-4.9c-1.3-0.2-1.1-0.2-7.9-1.4v-34.5c2-4.2,4.4-7.7,7.2-9.9
		c2.8-2.2,6.3-3.3,10.4-3.3c2.2,0,4.1,0.3,5.5,0.6c1.4,0.3,2.4,0.5,3.1,0.5c0.9,0,1.7-0.3,2.2-0.6c0.5-0.3,0.8-0.9,0.9-1.9l2.5-14.6
		C1258.3,883.6,1255,882.8,1251,882.8L1251,882.8z"/>
	<path class="st11" d="M1281.5,915.5c0,10.8-1.3,21.5-3.9,31.9c-2.7,10.4-6.3,20.3-11.1,29.4c-0.3,0.6-0.6,1.3-0.8,1.9
		c-0.2,0.6-0.3,1.1-0.3,1.6c0,1.1,0.5,1.9,0.9,2.5c0.5,0.6,1.1,1.1,1.9,1.6l8.5,5.3c3.9-6,7.4-11.9,10-17.9c2.7-6,4.9-12.1,6.6-18.2
		c1.7-6.1,3-12.4,3.8-18.7c0.8-6.3,1.3-12.7,1.3-19.3c0-6.6-0.5-12.9-1.3-19.2c-0.8-6.3-2-12.6-3.8-18.7c-1.7-6.1-3.9-12.2-6.6-18.2
		c-2.7-6-6.1-11.9-10-17.9l-8.5,5.2c-0.8,0.5-1.4,0.9-1.9,1.6c-0.5,0.6-0.9,1.6-0.9,2.5c0,0.9,0.5,2,1.1,3.5
		c4.9,9.1,8.5,19.2,11.1,29.5C1280.3,894.1,1281.5,904.7,1281.5,915.5L1281.5,915.5z"/>
</g>
</svg>
